<svg width="503" height="526" viewBox="0 0 503 526" fill="none" xmlns="http://www.w3.org/2000/svg">
<g clip-path="url(#clip0_542_2)">
<path fill-rule="evenodd" clip-rule="evenodd" d="M96.1292 206.128C95.6658 200.026 93.4984 190.257 85.784 190.713C79.3472 191.095 73.8212 201.512 75.0132 207.597C75.8782 212.014 77.2684 209.505 78.4458 207.382C78.5998 207.104 78.7502 206.832 78.8954 206.585C80.3742 204.052 83.0515 200.989 86.2299 201.639C88.9661 202.199 90.1231 204.994 91.1749 207.536C91.4814 208.275 91.7784 208.992 92.1024 209.627C94.5937 214.504 95.4581 209.787 96.0369 206.626C96.0682 206.455 96.0994 206.288 96.1292 206.128ZM64.1101 224.018C58.6306 226.072 64.5939 232.965 67.1869 234.458C66.6843 235.957 64.3927 237.313 62.6683 238.333L62.6676 238.334C62.197 238.612 61.7691 238.865 61.4307 239.09C59.3911 240.444 56.7858 241.269 54.3925 242.027L54.107 242.117L53.8688 242.193C47.116 244.34 40.5529 244.652 33.5837 243.6C26.8869 242.588 19.2182 240.334 14.898 234.661C13.0291 232.207 11.3113 228.472 13.1039 225.4C13.9407 223.966 15.4144 223.223 16.9143 222.467C18.3096 221.764 19.7274 221.05 20.6738 219.756C21.1161 219.152 21.4394 218.444 21.7575 217.745C22.0488 217.107 22.3357 216.477 22.7083 215.941C22.839 215.753 22.9509 215.588 23.0489 215.443C23.4041 214.917 23.5784 214.661 23.8159 214.552C24.044 214.449 24.3302 214.483 24.8916 214.55C25.1466 214.581 25.4589 214.618 25.8475 214.652C29.7043 214.99 33.8168 215.247 37.6141 214.287C39.2426 213.875 40.8463 213.259 42.4421 212.646C43.6442 212.185 44.8412 211.725 46.0411 211.356C49.0053 210.442 51.8162 208.522 54.1085 206.452C59.3962 201.676 64.5728 196.487 69.469 191.283C72.1572 188.425 74.3115 185.115 76.4695 181.8C78.2185 179.113 79.9697 176.422 82.0099 173.965C83.0508 172.712 84.0836 171.389 85.1317 170.046C89.282 164.73 93.6647 159.114 99.7071 156.382C103.132 154.834 103.81 155.795 105.098 157.621C105.444 158.112 105.837 158.667 106.339 159.253C108.34 161.588 111.115 161.19 113.819 160.802C114.396 160.72 114.969 160.638 115.53 160.582C115.259 161.222 114.962 161.871 114.662 162.528C113.468 165.145 112.211 167.898 112.153 170.751C112.134 171.699 112.377 172.592 112.618 173.476C112.848 174.318 113.075 175.151 113.07 176.013C113.062 177.179 112.451 178.292 111.851 179.386C111.549 179.936 111.249 180.481 111.031 181.025C108.102 188.322 107.394 198.208 107.284 206.043C107.058 222.252 111.753 239.517 121.737 252.226C123.843 254.908 126.212 257.385 128.859 259.501C129.352 259.895 130.452 260.474 131.699 261.129C134.096 262.39 137.036 263.935 137.24 264.998C137.729 267.541 133.317 267.812 130.654 267.975H130.653C130.043 268.012 129.525 268.044 129.179 268.096C127.38 268.367 125.59 268.693 123.801 269.018L123.8 269.019C121.704 269.4 119.607 269.781 117.497 270.074C101.816 272.254 86.3374 273.995 70.5295 273.114C69.8932 273.079 69.055 273.176 68.1674 273.278C66.6145 273.457 64.9084 273.654 63.8566 273.194C62.3074 272.516 62.4156 271.302 62.5463 269.835C62.5797 269.463 62.6146 269.074 62.624 268.674C62.7127 264.935 62.3531 261.241 61.9929 257.539C61.8643 256.214 61.735 254.888 61.6261 253.559C61.3631 250.34 61.8701 249.999 63.516 248.89C63.9569 248.593 64.4798 248.241 65.0907 247.764C68.0839 245.428 71.0103 241.092 71.9872 237.376C73.7849 238.874 73.5815 239.925 73.3179 241.283C73.1733 242.029 73.0114 242.867 73.1516 243.922C73.6353 247.553 76.0104 246.958 77.5771 244.527C80.0074 240.757 79.7924 234.798 77.5212 231.029C75.4867 227.656 68.2277 222.475 64.1101 224.018ZM189.437 357.874C190.93 359.116 192.422 360.356 193.94 361.566C195.472 362.786 196.629 363.996 197.768 365.586C197.849 365.7 197.927 365.807 198 365.909C199.201 367.577 199.336 367.765 198.411 369.687C197.396 371.793 195.909 373.468 194.426 375.138C193.344 376.357 192.263 377.574 191.371 378.955C190.591 380.16 189.901 381.412 189.215 382.659L189.214 382.66C187.776 385.27 186.349 387.861 184.132 389.967C182.667 386.552 180.774 391.543 183.207 391.016C182.501 393.179 181.252 395.141 180.003 397.103C179.251 398.284 178.499 399.464 177.866 400.689C175.874 404.54 173.695 408.038 171.337 411.659L171.264 411.387C171.2 411.147 171.135 410.906 171.071 410.665L170.903 410.038C170.807 409.681 170.712 409.325 170.616 408.968C168.866 409.4 169.52 410.514 170.003 411.339C170.154 411.595 170.287 411.823 170.328 411.993C170.37 412.175 170.444 412.309 170.518 412.441C170.692 412.754 170.863 413.063 170.614 413.996C170.425 414.702 169.905 415.334 169.409 415.937C169.205 416.185 169.005 416.428 168.833 416.67C167.681 418.295 166.598 419.962 165.512 421.633C165.353 421.877 165.194 422.122 165.035 422.367C164.141 423.739 163.67 424.937 163.175 426.198C162.991 426.669 162.802 427.148 162.587 427.649C162.152 428.66 161.74 428.932 161.221 429.273C160.897 429.486 160.531 429.727 160.093 430.193C159.35 430.983 158.609 432.144 157.9 433.255C157.487 433.902 157.084 434.533 156.698 435.064C153.579 439.351 150.777 444.261 148.648 449.138C147.722 451.261 146.439 453.095 145.153 454.93C143.623 457.118 142.09 459.307 141.159 461.988C140.67 463.395 140.354 464.843 140.038 466.289C139.788 467.432 139.539 468.575 139.204 469.698C138.93 470.615 138.589 471.507 138.247 472.398C137.704 473.817 137.161 475.234 136.892 476.748C136.675 477.96 136.67 479.286 136.664 480.538C136.66 481.401 136.657 482.229 136.585 482.962C136.541 483.404 136.456 483.918 136.365 484.477H136.364C136.151 485.77 135.899 487.303 136.022 488.746C136.394 493.101 138.142 496.88 140.229 500.509C130.71 503.843 119.88 504.78 109.894 504.538C104.79 504.413 98.9735 504.364 93.9792 505.584C93.3785 505.731 92.8069 505.885 92.2505 506.036C90.1333 506.607 88.2419 507.117 85.8392 506.923C83.828 506.76 81.8182 506.575 79.8077 506.391C78.7887 506.298 77.7703 506.204 76.7513 506.113C77.5241 504.503 79.8266 502.529 81.4775 501.113C81.7158 500.909 81.9402 500.716 82.145 500.538C82.5961 500.144 83.1895 499.895 83.7626 499.654C84.3778 499.397 84.9697 499.148 85.3402 498.74C85.9561 498.062 86.251 496.624 86.4834 495.49C86.5604 495.114 86.6302 494.772 86.7028 494.502C88.9493 486.17 90.6083 477.763 92.0152 469.239C94.5015 454.179 95.4653 438.845 96.3834 423.691C96.4132 423.196 96.5359 422.654 96.6587 422.112C96.8054 421.462 96.9529 420.813 96.9383 420.248C96.9209 419.559 96.8562 418.994 96.7945 418.456C96.7066 417.69 96.6245 416.979 96.6972 416.043C96.7349 415.557 97.0247 414.992 97.3095 414.437C97.616 413.842 97.9152 413.258 97.8891 412.797C97.8695 412.446 97.5985 412.372 97.3058 412.292C96.9441 412.192 96.549 412.084 96.5497 411.434C96.5519 410.425 97.3843 409.152 98.16 407.967C98.6837 407.165 99.1813 406.405 99.3781 405.793C99.4878 405.451 99.2982 405.04 99.1064 404.627C98.9474 404.284 98.7876 403.939 98.7977 403.629C98.7905 403.84 99.3425 401.27 99.3643 401.17C99.4355 400.85 99.5938 400.622 99.7514 400.394C99.9708 400.077 100.189 399.763 100.169 399.204C100.158 398.893 99.986 398.547 99.8088 398.191C99.5139 397.596 99.2038 396.973 99.6003 396.436C99.8117 396.149 100.295 396.227 100.776 396.304C101.282 396.385 101.785 396.465 101.967 396.123C102.199 395.688 101.798 394.721 101.373 393.698C100.96 392.701 100.525 391.652 100.635 390.995C100.827 389.851 101.335 388.699 101.846 387.538C102.304 386.501 102.764 385.456 103.005 384.404C103.079 384.078 103.102 383.69 103.125 383.288C103.174 382.47 103.225 381.591 103.725 381.041C104.433 380.262 105.087 380.401 105.857 380.565C106.409 380.683 107.02 380.813 107.752 380.626C105.963 379.057 105.617 377.682 106.145 375.391C106.558 373.602 107.381 371.617 109.273 373.403C108.99 370.733 109.001 370.316 110.929 368.294C111.246 367.962 111.571 367.553 111.906 367.132C112.56 366.31 113.251 365.44 113.991 365.002C114.329 364.634 114.668 364.266 115.007 363.899C115.465 364.393 116.01 364.673 116.642 364.737C117.666 364.68 118.594 364.594 119.458 364.513C123.155 364.168 125.692 363.93 129.718 366.647C130.279 367.025 130.839 367.379 131.393 367.728C132.909 368.683 134.382 369.611 135.701 370.96C136.549 371.826 137.327 372.757 138.106 373.689C139.171 374.964 140.237 376.239 141.481 377.348C142.169 377.961 142.854 378.543 143.531 379.119C145.224 380.558 146.873 381.958 148.405 383.716C148.686 384.038 148.966 384.367 149.246 384.698C150.737 386.454 152.262 388.251 154.262 389.297C154.429 386.587 153.122 384.14 151.851 381.762C151.743 381.558 151.634 381.356 151.527 381.153C151.363 380.845 150.179 380.018 150.205 380.109C150.133 379.852 150.233 379.612 150.331 379.379C150.428 379.146 150.522 378.921 150.437 378.692C151.139 379.347 151.848 380.111 152.572 380.89C153.975 382.4 155.431 383.967 156.987 384.918C160.558 387.1 159.347 383.311 158.566 380.865C158.504 380.673 158.446 380.489 158.392 380.318C156.297 373.585 152.502 367.133 148.114 361.699C140.437 352.194 127.63 341.581 115.374 347.564C103.227 353.494 96.8279 363.454 93.3422 376.702C89.298 392.079 87.4408 406.773 87.0565 422.702C86.8357 431.821 85.9358 440.866 85.0082 449.934C84.7424 452.536 84.5223 455.201 84.3001 457.889C83.7677 464.343 83.2244 470.925 82.0049 477.058C80.9204 475.427 80.2813 474.197 79.7401 472.364C79.645 472.043 79.6428 471.726 79.6406 471.409C79.637 470.994 79.6341 470.581 79.4213 470.167C79.3327 469.995 79.0588 469.922 78.7915 469.851C78.5366 469.783 78.2868 469.716 78.2068 469.567L78.0514 469.277C76.7193 466.796 74.9471 463.495 74.3522 460.717C74.2236 460.116 74.1924 459.614 74.1626 459.142C74.1169 458.417 74.0754 457.761 73.6941 456.922C73.421 456.324 73.2104 456.263 73.0404 456.214C72.8421 456.157 72.6998 456.116 72.5785 455.253C72.569 455.186 72.654 455.105 72.768 454.996C73.0295 454.747 73.4464 454.35 73.2336 453.627C72.6831 451.759 72.248 452.484 71.9095 453.05C71.773 453.277 71.6517 453.478 71.5456 453.474C71.083 453.454 71.5326 451.476 71.9299 449.731C72.1884 448.592 72.4252 447.553 72.3715 447.22C72.285 446.688 72.1151 446.607 71.9429 446.525C71.802 446.458 71.6597 446.39 71.5631 446.071C71.3713 445.432 71.136 444.508 70.9914 443.62C70.8084 442.492 70.5295 441.68 70.2629 440.905C69.8903 439.823 69.5424 438.811 69.5162 437.104C69.4836 434.956 69.0027 433.273 68.503 431.525C68.1805 430.398 67.8508 429.245 67.6285 427.921C67.5748 427.606 67.7178 427.272 67.8558 426.947C67.9902 426.631 68.1202 426.326 68.0614 426.058C67.9357 425.478 67.6663 424.949 67.3917 424.41C67.1302 423.896 66.8637 423.374 66.7133 422.789C66.3465 421.367 66.6051 420.054 66.8629 418.745C67.0583 417.752 67.2537 416.759 67.176 415.72C67.2058 416.115 66.4525 413.947 66.4053 413.756C66.2586 413.159 66.2252 412.454 66.1918 411.741C66.1628 411.138 66.1337 410.529 66.0356 409.978C65.9862 409.704 65.9093 409.409 65.8301 409.102C65.5824 408.149 65.3086 407.095 65.7633 406.298C65.9659 405.943 66.2928 405.811 66.6363 405.672C66.9901 405.529 67.3612 405.379 67.6336 404.972C67.1818 404.821 66.855 404.743 66.6109 404.684C66.3189 404.614 66.1461 404.573 66.0197 404.47C65.8374 404.321 65.7516 404.044 65.5432 403.365C65.4916 403.197 65.4321 403.004 65.3616 402.782C64.681 400.633 64.6149 398.833 66.8695 400.253C66.6879 399.792 66.4576 399.298 66.2194 398.788C65.7095 397.695 65.1662 396.532 65.0086 395.472C64.8975 394.729 64.9839 393.998 65.0703 393.266C65.1481 392.604 65.2265 391.941 65.1575 391.269C65.0718 390.43 64.9498 389.664 64.8336 388.939C64.4283 386.4 64.105 384.374 65.7233 381.52C63.7767 380.491 63.8116 377.648 63.8428 375.105C63.8552 374.068 63.8675 373.08 63.7448 372.286C63.6612 371.747 63.5567 371.211 63.4528 370.686C62.9865 368.307 62.555 366.108 64.3251 364.507C62.181 362.915 62.5667 358.528 62.8608 355.184C62.9429 354.253 63.0177 353.402 63.0286 352.716C63.0526 351.208 63.0083 349.689 62.9618 348.11C62.9153 346.531 62.8666 344.89 62.8841 343.138C62.8993 341.651 62.5986 340.513 62.2543 339.209C62.1403 338.777 62.0212 338.326 61.9071 337.838C61.5556 336.334 61.6268 335.038 61.6987 333.72C61.7481 332.826 61.7975 331.922 61.7161 330.935C61.642 330.04 61.451 329.144 61.2578 328.235C61.0319 327.172 60.8024 326.093 60.7508 324.981C60.7145 324.201 60.7145 323.387 60.7152 322.565C60.7152 321.164 60.716 319.742 60.5344 318.437C60.4523 317.846 60.3506 317.312 60.2518 316.79C60.0644 315.801 59.885 314.857 59.8574 313.646C59.8531 313.437 59.8131 313.165 59.771 312.881C59.702 312.416 59.6279 311.917 59.6955 311.601C59.6955 311.602 59.7027 311.586 59.7165 311.555C59.8364 311.282 60.4341 309.917 60.4298 310.623C60.4378 309.486 60.2293 308.359 60.015 307.197C59.6751 305.363 59.3199 303.441 59.7754 301.254C60.3099 298.694 60.769 298.733 62.778 298.906H62.7802C63.0737 298.932 63.3998 298.959 63.7644 298.983L64.2104 299.011C66.3204 299.146 68.4296 299.281 70.544 299.289C71.3727 299.292 72.7208 299.127 74.2759 298.936C78.2221 298.452 83.5033 297.803 85.0257 299.335C86.3222 300.641 86.1058 305.543 85.9518 309.038C85.8966 310.279 85.8501 311.342 85.8813 312.005C85.9881 314.277 84.8746 315.678 83.6769 317.185C82.7051 318.408 81.678 319.7 81.2044 321.584C79.1896 329.598 82.5184 340.177 91.6034 340.862C100.078 341.501 108.207 334.299 107.043 325.447C106.576 321.894 104.993 318.028 102.004 315.949C100.645 315.004 98.5675 314.837 96.5381 314.675C94.2502 314.493 92.0232 314.315 90.9562 313.03C90.264 312.196 90.2844 309.588 90.2996 307.683C90.3047 307.005 90.309 306.414 90.2807 306.027C90.2466 305.565 90.1761 305.005 90.0999 304.399C89.8202 302.186 89.4651 299.368 90.5393 298.57C92.085 297.42 96.8577 297.398 98.6212 297.393L98.7716 297.392C101.213 297.386 103.446 297.38 105.877 296.956C108.257 296.539 110.634 296.31 113.003 296.082C116.098 295.784 119.178 295.488 122.232 294.776C127.587 293.528 132.534 292.224 137.578 289.994C138.378 295.549 140.114 300.584 141.875 305.691C142.391 307.189 142.91 308.693 143.407 310.219C144.444 313.398 146.062 316.638 147.65 319.56C147.847 319.922 148.054 320.38 148.274 320.865V320.866C149.199 322.912 150.343 325.443 151.867 323.32C152.012 323.954 152.002 324.439 151.992 324.901C151.981 325.439 151.971 325.949 152.204 326.629C152.645 327.914 154.413 329.425 155.887 330.684V330.685C156.465 331.178 156.998 331.634 157.388 332.021C158.318 332.948 159.314 333.723 160.318 334.506H160.319C160.755 334.846 161.192 335.186 161.627 335.541C161.762 335.651 161.968 335.666 162.171 335.681C162.392 335.696 162.61 335.711 162.731 335.852C162.989 336.156 162.946 336.532 162.911 336.833C162.887 337.031 162.868 337.196 162.94 337.289C164.581 339.42 167.102 341.102 169.483 342.689C170.367 343.279 171.232 343.856 172.024 344.438C176.208 347.508 180.371 350.577 184.448 353.795C186.139 355.13 187.788 356.502 189.436 357.873L189.437 357.874ZM127.368 245.465C130.451 249.138 135.227 254.745 140.004 255.852C144.677 256.935 152.011 255.432 156.18 253.059C155.997 251.977 157.024 250.098 157.98 248.345C158.563 247.278 159.12 246.259 159.363 245.494C159.598 244.755 159.637 244.181 159.677 243.606C159.705 243.19 159.734 242.773 159.838 242.292C159.923 241.898 160.076 241.691 160.215 241.502C160.412 241.235 160.583 241.006 160.498 240.339C160.354 239.189 159.55 238.56 158.763 237.946C158.163 237.476 157.571 237.014 157.294 236.333C157.179 236.054 157.307 235.055 157.412 234.232C157.468 233.792 157.518 233.403 157.52 233.201C157.544 231.588 157.405 230.561 156.615 229.176C155.363 226.98 153.479 225.198 151.623 223.441C150.626 222.497 149.637 221.56 148.757 220.571C147.989 219.706 147.53 218.803 147.049 217.858C146.81 217.389 146.566 216.909 146.276 216.419C145.967 215.895 145.563 215.42 145.165 214.951C144.632 214.324 144.107 213.706 143.828 212.996C143.591 212.394 143.523 211.676 143.454 210.952C143.39 210.295 143.327 209.632 143.138 209.044C142.777 207.931 142.22 206.931 141.663 205.931C141.243 205.18 140.824 204.428 140.489 203.627C138.894 199.819 138.482 195.286 138.103 191.12C138.066 190.714 138.029 190.313 137.992 189.915L137.767 189.969C132.966 191.128 128.351 192.241 125.695 186.732C125.352 186.021 125.288 184.569 125.227 183.177C125.163 181.718 125.101 180.324 124.725 179.917C124.208 179.357 119.031 179.712 118.441 180.216C116.317 182.031 116.333 188.259 116.344 192.299C116.346 193.279 116.348 194.13 116.32 194.758C116.232 196.678 116.09 198.603 115.949 200.53C115.669 204.335 115.389 208.146 115.522 211.946C115.917 223.225 120.131 236.843 127.368 245.465ZM211.174 318.519C211.929 322.423 212.687 326.345 213.687 330.173C214.107 331.783 214.302 333.371 214.496 334.958C214.746 336.996 214.996 339.031 215.722 341.112C215.651 341.585 215.609 342.13 215.563 342.706C215.389 344.913 215.181 347.566 213.238 348.348C211.024 349.239 209.585 347.064 208.762 345.179C207.307 341.842 207.112 337.775 206.922 333.826C206.823 331.749 206.725 329.705 206.445 327.819C205.905 324.164 205.653 320.54 205.399 316.91C205.204 314.122 205.01 311.33 204.684 308.518C204.492 306.855 204.165 305.064 203.83 303.222C203.014 298.749 202.143 293.975 203.003 289.994C203.827 289.973 205.353 295.187 206.347 298.584C206.697 299.78 206.981 300.751 207.145 301.19C208.572 304.99 209.302 308.818 210.055 312.761C210.213 313.591 210.372 314.426 210.539 315.267C210.754 316.348 210.964 317.433 211.174 318.519Z" fill="#FF5678"/>
<path fill-rule="evenodd" clip-rule="evenodd" d="M473.839 502.005C470.483 503.081 467.336 504.668 464.102 506.084C460.43 507.693 457.868 507.975 453.858 507.969C438.338 507.945 422.978 508.768 407.429 509.093C403.182 509.181 398.87 509.225 394.623 509.145C392.908 509.113 391.226 508.912 389.52 508.766C388.417 508.672 383.609 509.355 382.968 508.956C381.165 507.835 382.236 500.616 382.017 498.303C381.636 494.286 380.652 490.415 379.282 486.641C374.379 473.139 366.134 459.966 355.709 450.329C369.805 444.21 385.182 436.142 400.826 439.772C406.784 441.154 414.68 442.964 417.749 448.922C421.023 455.282 423.892 462.276 427.635 468.366C431.819 475.171 436.261 481.002 442.317 486.106C444.708 488.121 456.751 500.495 454.922 490.943C454.335 487.879 452.167 485.031 450.436 482.53C449.555 481.257 444.808 477.085 445.547 475.61C446.376 473.957 454.937 472.792 456.771 472.265C460.562 471.18 464.33 470.021 468.105 468.881C466.74 471.54 459.314 481.602 464.059 484.173C465.802 485.118 470.31 481.772 472.221 481.184C475.475 480.183 478.449 480.842 481.648 481.833C481.565 483.456 478.48 483.477 477.455 484.586C475.955 486.209 474.902 490.583 476.078 492.527C478.268 496.149 486.747 492.453 490.54 493.827C486.277 498.373 479.591 500.159 473.839 502.005ZM262.05 352.513C262.095 352.606 262.014 352.737 261.504 353.194C261.349 352.617 261.072 352.49 260.731 352.649C261.005 352.341 261.231 352.178 261.504 353.194C261.719 353.001 261.898 352.763 262.05 352.513ZM263.347 350.606C263.245 350.954 263.014 351.117 262.66 351.108C262.679 351.048 262.696 350.991 262.71 350.946C262.944 350.188 263.258 350.317 263.153 348.922C263.294 349.155 263.401 349.39 263.322 349.625C263.546 349.979 263.553 350.306 263.347 350.606ZM225.62 416.132C225.978 415.239 226.073 414.201 226.535 413.378C226.082 414.212 226.075 415.24 225.62 416.132ZM371.445 508.387C365.826 508.155 360.351 508.258 354.734 508.511C342.733 509.051 330.678 509.131 318.699 510.126C312.84 510.613 307.207 510.798 301.33 510.595C296.192 510.416 291.035 510.605 285.912 510.16C280.287 509.671 275.021 508.064 269.344 507.977C263.917 507.894 257.453 507.245 252.189 508.064C251.28 508.205 250.79 508.804 249.718 508.948C248.236 509.148 246.151 508.524 244.634 508.418C241.972 508.233 239.029 508.538 236.432 507.896C235.54 507.677 234.915 507.338 234.05 506.977C233.269 506.652 231.519 506.401 231.09 506.285C233.565 505.331 228.074 503.387 227.632 503.281C227.52 503.668 227.767 504.211 228.173 504.737C226.767 503.622 228.272 504.034 225.974 502.905C225.008 502.43 223.181 502.124 222.098 501.998C221.056 501.877 220.493 502.005 220.019 501.977C220.115 501.867 220.209 501.72 220.301 501.524C221.068 499.889 218.731 498.022 217.418 499.12C217.57 499.44 217.816 500.031 218.114 500.61C218.101 500.595 218.089 500.583 218.076 500.566C217.589 499.985 216.673 498.499 215.762 497.499C216.917 496.839 215.504 495.943 214.971 495.023C214.606 495.23 214.202 495.406 213.992 495.694C214.296 495.039 215.048 494.446 214.607 493.172C214.481 492.808 214.147 492.259 213.729 491.874C214.126 492.194 214.54 492.552 215.075 492.475C214.406 491.427 214.16 491.032 213.904 489.981C213.725 489.242 214.726 488.528 213.775 487.859C213.804 487.162 214.205 483.961 212.523 485.078C212.523 485.078 212.523 485.078 212.522 485.079C212.523 485.077 212.523 485.076 212.524 485.075C213.6 481.671 215.432 478.157 216.792 474.828C219.963 467.078 223.222 459.27 226.54 451.587C232.026 438.878 237.754 426.202 244.066 413.834C250.324 401.573 257.156 389.716 263.062 377.286C268.759 365.295 275.405 353.821 281.141 341.849C283.844 336.21 287.465 331.547 288.387 324.995C288.684 322.872 288.779 318.447 285.672 319.244C283.652 319.761 280.825 324.988 279.521 326.688C278.353 325.031 271.764 315.291 269.997 321.094C268.481 326.069 277.97 328.236 274.185 333.247C273.809 333.744 272.254 334.246 271.743 334.705C270.75 335.599 269.84 337.177 269.073 338.255C267.323 340.714 265.875 343.326 264.258 345.869C263.954 346.348 262.841 347.43 262.756 347.99C262.711 348.287 262.952 348.593 263.141 348.902C261.824 350.106 260.165 351.169 259.857 353.119C259.948 353.16 260.032 353.167 260.113 353.151C258.889 354.474 257.341 357.679 257.119 358.013C255.471 360.491 253.854 363.083 252.225 365.697C251.345 367.111 249.805 368.773 249.3 370.361C249.125 370.91 249.637 371.894 249.159 372.409C247.904 373.76 246.676 373.472 245.736 376.19C245.367 377.26 245.334 378.756 244.74 379.674C243.787 381.147 242.424 381.84 241.534 383.425C239.845 386.431 237.821 389.731 236.756 392.764C236.753 392.777 236.752 392.788 236.747 392.801C236.711 392.563 236.661 392.305 236.602 392.025C235.998 393.144 235.396 394.263 234.794 395.383C235.836 395.173 236.394 394.88 236.648 394.401C236.618 394.561 236.569 394.727 236.474 394.901C235.941 395.155 235.38 395.315 234.794 395.383C234.389 396.073 234.012 396.777 233.659 397.495C233.486 397.858 232.905 400.073 232.66 401.75C232.57 401.099 232.48 400.515 232.47 400.438C231.706 401.959 230.941 403.48 230.176 405C231.563 403.898 231.485 403.711 232.806 403.684C231.141 403.718 228.621 406.135 228.391 408.457C228.353 408.834 228.576 409.247 228.774 409.637C228.728 409.63 228.683 409.624 228.63 409.619C226.887 409.466 227.397 409.83 226.736 411.331C226.988 411.227 228.456 410.635 229.008 410.173C229.067 410.371 229.078 410.552 228.985 410.706C228.553 411.415 225.022 410.957 227.289 412.532C225.405 411.224 224.464 415.52 225.105 416.997C224.598 417.754 223.993 418.451 223.425 419.152C222.029 420.873 221.257 422.179 220.342 424.275C218.784 427.844 216.926 431.387 215.224 434.888C214.577 436.219 213.823 437.353 213.031 438.588C211.624 440.781 211.871 440.234 212.981 442.623C212.564 442.483 211.948 442.822 211.353 443.314C211.677 442.745 212.089 442.323 212.981 442.623C211.573 439.592 210.364 443.286 209.716 445.022C209.745 445.022 209.769 445.014 209.796 445.013C209.708 445.148 209.642 445.268 209.601 445.363C208.939 446.772 208.159 447.636 208.724 449.113C208.886 448.291 209.531 447.655 209.805 446.949C209.419 448.672 207.601 450.736 207.051 451.878C206.595 452.826 206.531 453.821 205.97 454.852C205.444 455.821 204.97 456.473 204.565 457.581C202.61 462.939 201.658 468.906 200.424 474.533C198.966 481.183 198.365 488.249 198.053 495.055C197.962 497.033 197.912 498.782 198.601 500.66C198.702 500.933 199.775 502.382 199.747 502.912C199.599 505.68 194.568 505.105 192.633 505.025C189.557 504.897 187.463 505.411 184.508 505.853C181.782 506.26 179.107 506.037 176.339 506.728C171.742 507.876 164.896 509.695 160.451 507.173C158.302 505.954 155.596 502.418 154.036 500.434C152.117 497.993 151.471 495.506 151.127 492.396C150.54 487.074 150.5 481.195 152.289 476.11C160.605 452.48 174.871 431 187.175 409.496C198.72 389.317 211.662 370.191 223.231 350.066C229.346 339.428 236.703 328.903 243.978 319.071C251.412 309.022 256.718 298.087 261.96 286.713C267.393 289.691 273.144 292.753 279.219 294.099C282.673 294.864 286.103 294.632 289.586 294.879C292.153 295.061 294.301 295.688 296.916 295.757C308.38 296.059 321.627 294.639 332.586 291.139C335.216 290.299 337.567 289.428 340.032 288.218C343.178 286.674 344.029 286.018 344.208 289.608C344.553 296.558 345.651 303.314 346.167 310.224C346.671 316.959 347.984 323.6 349.145 330.254C349.732 333.624 350.366 336.991 350.848 340.379C351.214 342.949 352.318 346.524 351.879 349.094C351.395 351.931 348.795 354.809 347.307 357.23C345.797 359.685 344.279 362.136 342.773 364.594C339.948 369.205 337.137 373.58 333.801 377.81C327.619 385.652 322.354 393.853 316.491 401.951C310.266 410.55 305.092 419.839 298.982 428.526C295.755 433.115 292.454 437.443 290.339 442.612C288.584 446.899 285.053 450.842 282.895 455.085C280.059 460.655 276.453 465.757 273.637 471.355C271.671 475.265 267.875 479.242 267.477 483.787C266.809 491.411 273.822 483.792 275.445 481.666C277.622 478.815 280.01 473.825 283.28 472.28C285.616 471.176 289.029 471.296 291.564 470.432C294.222 469.527 296.83 468.587 299.514 467.759C304.741 466.144 309.783 463.866 314.864 461.816C320.124 459.695 325.382 457.553 330.542 455.195C332.932 454.102 334.945 453.542 337.497 453.067C338.595 452.862 342.525 450.943 343.391 451.106C344.844 451.379 346.847 455.794 347.949 456.93C349.647 458.68 351.557 460.111 353.144 461.994C356.269 465.704 359.58 469.657 362.29 473.688C368.345 482.694 374.008 492.534 376.161 503.383C377.128 508.252 376 508.576 371.445 508.387ZM213.971 496.613C213.934 496.53 213.911 496.453 213.896 496.377C213.915 496.453 213.932 496.527 213.971 496.613C214.688 496.173 214.878 496.406 214.951 496.766C214.591 496.526 214.254 496.439 213.971 496.613ZM212.301 491.585C212.272 491.449 212.259 491.324 212.254 491.204C212.264 491.33 212.274 491.456 212.301 491.585C212.694 491.313 213.021 491.39 213.336 491.585C213.001 491.397 212.64 491.35 212.301 491.585ZM213.022 488.293C213.242 488.277 213.493 488.153 213.775 487.859C213.544 488.1 213.326 488.353 213.127 488.617C213.13 488.585 213.135 488.554 213.137 488.52C213.142 488.457 213.092 488.379 213.022 488.293ZM141.629 460.726C139.997 464.704 139.318 469.056 137.931 473.13C136.871 476.246 136.447 479.324 136.169 482.583C137.137 483.32 137.115 483.969 136.105 484.531C136.033 485.239 136.008 485.95 136.031 486.663C135.768 488.738 136.155 490.543 136.687 492.532C137.528 495.686 138.595 497.952 140.16 500.678C130.66 504.01 119.835 504.948 109.867 504.707C104.48 504.576 98.436 504.564 93.186 505.937C87.533 507.417 82.5765 506.799 76.7687 506.282C77.617 504.515 80.8594 501.568 82.5017 500.34C83.3377 499.716 84.7126 499.61 85.346 498.911C86.251 497.914 86.3571 495.979 86.7079 494.673C88.9479 486.34 90.6061 477.937 92.013 469.415C94.492 454.39 95.644 439.011 96.3754 423.874C96.4371 422.594 97.077 421.156 97.0458 419.944C97.0051 418.351 96.5642 417.829 96.6884 416.228C96.7691 415.183 97.9799 413.766 97.8927 412.837C97.8368 412.255 96.4582 412.758 96.541 411.619C96.6703 409.865 98.8667 407.553 99.3657 405.979C99.5872 405.279 98.7607 404.581 98.7861 403.816C98.7788 404.034 99.3316 401.45 99.3526 401.356C99.519 400.614 100.192 400.302 100.156 399.392C100.123 398.564 98.9568 397.481 99.588 396.624C100.226 395.757 101.549 397.069 101.951 396.311C102.409 395.451 100.397 392.516 100.621 391.184C101.012 388.854 102.546 386.348 103.146 383.982C103.371 383.095 103.009 381.999 103.707 381.231C104.922 379.894 105.976 381.265 107.729 380.816C105.99 379.29 105.608 377.819 106.124 375.582C106.542 373.766 107.349 371.8 109.248 373.595C108.997 371.23 108.73 370.99 110.373 369.014C111.791 367.309 113.629 365.266 115.328 363.959C117.865 362.005 121.917 361.001 124.927 360.771C128.212 360.521 132.251 362.341 134.738 364.907C137.761 368.029 141.673 370.304 145.104 373.288C148.767 376.475 151.913 380.259 155.433 383.637C156.156 384.33 157.486 386.269 158.603 385.936C160.424 385.392 158.953 382.583 158.554 381.333C155.716 372.445 150.615 363.489 143.598 357.426C139.98 354.297 136.38 350.341 132.174 348.063C128.776 346.222 126.122 346.512 122.509 346.38C119.421 346.268 118.786 346.079 116.033 347.422C114.081 348.374 112.148 349.304 110.306 350.468C107.36 352.329 104.322 354.591 102.145 357.402C96.35 364.89 94.0882 374.412 91.8104 383.536C89.3045 393.573 87.5795 403.379 87.2751 413.793C86.9664 424.389 86.4914 434.829 85.4811 445.383C84.9552 450.871 84.3502 456.348 83.6638 461.817C83.0319 466.86 82.9992 472.28 82.0157 477.232C80.7781 475.367 80.3931 473.927 79.7096 471.918C79.2484 470.565 78.7806 470.611 78.1131 469.614C76.699 467.503 74.9311 463.499 74.374 460.894C74.0333 459.3 74.3485 458.502 73.7166 457.1C73.5212 456.667 72.4593 457.006 72.2894 456.32C72.1674 455.828 72.8327 455.448 72.8029 455.28C72.7332 454.892 73.766 454.461 72.8741 453.24C71.6066 451.508 72.2552 453.682 71.571 453.652C71.0008 453.627 72.7114 447.645 72.5102 446.777C72.439 446.47 71.4693 446.429 71.3916 446.144C71.1563 445.281 71.2093 444.032 70.9798 443.096C70.4183 440.811 69.5852 439.895 69.5446 437.285C69.4901 433.836 68.2539 431.395 67.659 428.104C67.5442 427.471 68.2175 426.786 68.0919 426.241C67.8362 425.126 67.0387 424.151 66.7453 422.973C66.1802 420.703 66.9348 417.501 66.7801 415.656C66.6443 414.041 66.2063 411.419 65.918 409.413C65.4487 406.147 66.292 407.213 67.6641 405.158C65.7618 404.524 66.0037 405.082 65.3957 402.968C64.6941 400.528 64.7587 399.088 66.9014 400.44C66.332 398.99 65.2751 397.214 65.0427 395.66C64.827 394.217 65.3376 392.891 65.1916 391.458C64.7958 387.579 63.6249 385.474 65.7567 381.711C63.017 380.26 64.2104 375.264 63.7804 372.478C63.3184 369.469 62.1948 366.66 64.3607 364.7C62.1338 363.044 63.0155 358.293 63.025 355.757C63.0286 354.606 63.4063 352.58 63.3104 351.558C63.2436 350.84 62.7707 350.357 62.6335 349.521C62.1272 346.419 63.245 343.349 62.5725 340.264C61.8149 336.788 61.7263 333.822 61.4662 330.415C61.2149 327.113 60.721 323.682 60.5082 320.297C60.3513 317.784 59.4035 315.067 59.84 312.465C59.8748 312.26 60.453 310.408 60.4697 310.826C60.4428 310.157 59.9715 309.329 59.9497 308.931C59.795 305.919 59.739 303.463 59.864 300.406C59.8581 300.406 59.8516 300.404 59.8458 300.405C60.2068 300.178 60.4007 299.707 60.416 298.973C63.1419 298.7 66.1242 299.389 68.8785 299.464C71.8478 299.545 74.8069 299.392 77.7725 299.251C79.6798 299.16 83.7916 298.226 85.2443 299.872C86.296 301.065 85.6343 307.203 85.7048 308.799C85.7876 310.686 86.7115 313.646 85.6438 315.297C84.9814 316.321 83.4844 316.73 82.713 317.854C82.2431 318.538 81.861 319.685 81.6119 320.429C80.8579 322.667 80.5573 325.084 80.6727 327.448C81.2175 338.515 89.7977 343.596 99.4318 339.137C107.825 335.253 110.107 323.503 102.896 316.92C101.198 315.369 99.389 314.976 97.2223 314.593C95.8452 314.35 92.0878 314.499 91.1879 313.483C90.2945 312.476 90.5124 309.332 90.4136 308.023C90.2546 305.923 89.4374 302.803 89.8805 300.777C89.1549 299.088 89.6386 298.374 91.3346 298.633C91.8714 298.522 92.4081 298.41 92.9449 298.298C94.2973 298.045 95.6258 297.74 96.9993 297.642C99.4471 297.469 101.834 297.769 104.284 297.431C106.686 297.098 109.041 296.477 111.448 296.156C114.006 295.814 116.518 296.194 119.049 295.745C124.304 294.816 129.949 293.565 134.864 291.43C136.181 290.859 138.412 289.213 139.873 289.484C141.622 289.81 141.154 290.96 141.658 292.68C144.453 302.22 150.259 311.644 156.405 319.228C162.207 326.387 169.854 332.16 176.771 338.164C180.965 341.804 184.992 345.631 188.885 349.609C191.711 352.498 194.743 357.013 198.392 358.679C199.225 358.71 202.432 358.33 203.018 358.952C203.695 359.667 203.654 360.068 203.384 360.514C204.159 358.403 200.47 358.759 198.392 358.679C198.628 359.088 200.961 363.925 201.539 361.234C201.873 361.441 202.209 361.647 202.544 361.854C200.886 365.64 198.738 369.436 196.406 372.825C194.705 375.297 192.509 377.084 190.984 379.645C189.057 382.877 187.454 386.232 185.014 389.111C180.148 394.855 177.44 402.578 173.198 408.951C171.16 412.014 170.096 414.861 167.974 417.91C166.315 420.296 163.628 423.314 162.66 426.059C162.274 427.156 162.688 428.108 161.982 429.125C161.535 429.768 160.212 430.465 159.588 431.131C157.109 433.777 155.176 437.553 153.232 440.667C151.161 443.982 149.718 447.421 147.964 450.875C146.165 454.418 143.188 456.929 141.629 460.726ZM77.2873 470.89C77.4209 471.262 76.6176 471.895 74.4836 471.662C76.5973 471.893 77.4064 471.265 77.2873 470.89ZM58.7316 509.397C56.9935 508.769 52.4728 507.659 49.5289 506.346C50.8421 506.726 52.2091 507.039 52.735 507.229C54.7331 507.951 56.732 508.674 58.7316 509.397C61.5629 498.847 72.1935 494.826 81.2901 490.93C76.9081 490.74 75.3429 486.808 72.6939 483.998C75.3371 486.801 76.9278 490.741 81.2901 490.93C72.195 494.825 61.5629 498.848 58.7316 509.397ZM48.7881 498.776C48.6878 498.947 48.589 499.124 48.4895 499.316C48.2186 499.841 47.1974 502.185 46.7681 503.724C46.6817 502.142 47.5903 500.291 48.7881 498.776ZM58.7962 298.459C58.9582 298.392 59.089 298.382 59.2073 298.391C58.7323 298.413 58.603 298.997 58.582 299.807C58.1694 299.353 58.0706 298.759 58.7962 298.459ZM91.8133 322.838C94.9111 324.428 97.9174 325.354 100.873 327.277C97.247 330.191 85.6714 334.896 86.0171 325.892C86.0578 324.843 86.6512 322.024 87.5773 321.4C88.9864 320.451 90.585 322.207 91.8133 322.838ZM56.3492 280.913C69.9912 285.833 85.8842 284.617 99.7492 282.217C114.646 279.639 129.52 278.121 143.95 273.294C143.965 275.372 144.837 277.547 143.244 279.259C141.996 280.601 139.29 280.855 137.641 281.421C133.326 282.9 129.62 285.053 125.111 285.937C120.06 286.927 115.014 286.907 109.919 287.493C108.074 287.705 106.339 288.047 104.605 288.391C102.206 288.428 100.325 288.764 97.929 289.452C89.3582 289.494 80.8456 289.757 72.3104 288.701C67.9757 288.165 63.6881 287.508 59.3424 287.051C55.2721 286.623 56.1807 284.809 56.3492 280.913ZM51.1305 243.063C43.0965 245.357 34.8105 244.671 26.9065 242.044C21.1902 240.147 13.608 237.365 12.4059 230.175C11.612 225.432 14.3627 224.572 17.597 222.603C19.1449 221.66 19.8973 220.949 20.9382 219.353C21.5563 218.404 22.1112 216.026 22.8049 215.377C24.4943 213.797 29.8263 215.184 32.4702 215.062C36.4098 214.88 39.0799 213.512 42.7043 212.304C49.1062 210.169 53.1577 207.581 58.1273 202.698C62.961 197.949 68.6374 193.118 72.5458 187.52C76.9234 181.253 81.1122 175.154 85.8806 169.176C89.4142 164.747 95.8241 155.88 102.164 155.921C105.346 155.942 104.876 159.044 107.403 160.62C109.71 162.06 112.729 161.058 115.265 160.809C113.593 164.736 111.275 168.776 112.095 173.22C112.555 175.709 112.799 176.569 111.859 178.924C110.999 181.076 110.07 182.983 109.537 185.287C107.464 194.267 106.483 204.373 107.352 213.554C108.858 229.449 114.127 245.86 125.653 257.081C128.281 259.639 131.171 261.684 134.389 263.367C137.599 265.046 137.865 266.794 133.888 267.544C126.143 269.004 118.279 270.002 110.479 271.086C102.688 272.169 94.7586 273.3 86.9025 273.466C83.0159 273.549 79.1533 274.049 75.2674 273.764C73.3324 273.622 71.4098 273.264 69.469 273.209C67.7752 273.161 65.2461 274.035 63.6692 273.345C61.2011 272.266 62.4286 264.799 62.2478 262.207C62.0393 259.232 60.2228 253.652 61.3014 250.84C62.0597 248.865 64.8415 248.037 66.2826 246.5C68.6483 243.978 70.8846 240.989 71.7882 237.551C74.7829 240.05 72.2066 241.653 73.1152 244.699C74.1074 248.024 75.937 246.978 77.3694 244.698C79.7597 240.89 79.5999 235.005 77.3134 231.209C75.9901 229.013 73.8401 227.363 71.6342 226.189C69.8496 225.239 65.8991 223.377 63.9227 224.202C58.5587 226.443 64.2677 233.064 66.9944 234.636C66.3392 236.592 61.6929 239.414 59.9213 240.249C57.2898 241.49 53.9552 242.257 51.1305 243.063ZM124.753 182.421C124.823 183.486 124.933 184.504 125.273 185.524C125.967 187.602 127.355 189.403 129.267 190.432C132.978 192.429 140.502 189.553 143.764 187.198C143.764 194.338 145.002 200.017 146.984 206.791C148.901 213.344 152.825 218.678 156.163 224.496C157.894 227.513 159.483 230.628 161.927 233.106C164.412 235.624 164.825 236.589 164.599 240.302C164.226 246.417 161.409 250.587 156.082 253.12C151.863 255.537 143.151 257.501 138.554 255.482C133.721 253.357 129.015 247.858 125.885 243.626C118.775 234.01 115.169 219.527 115.602 207.572C115.827 201.345 116.145 194.973 116.722 188.769C117.141 184.248 116.988 177.75 123.349 179.787C125.405 180.444 124.587 179.954 124.753 182.421ZM149.162 265.919C149.775 264.627 155.174 263.329 156.114 264.087C157.539 265.236 157.598 271.937 158.099 273.844C158.893 276.872 159.938 279.863 161.197 282.718C163.84 288.706 167.63 294.891 172.127 299.555C176.788 304.386 182.143 307.734 187.802 311.197C189.419 312.187 190.984 313.381 192.645 314.279C193.343 314.656 194.635 314.832 195.184 315.399C196.542 316.803 195.914 319.683 195.898 321.511C195.833 328.832 195.856 335.915 196.795 343.137C191.25 338.702 186.241 333.071 181.304 327.899C176.128 322.475 169.463 318.895 164.555 313.152C160.09 307.927 156.575 301.837 153.294 295.793C151.857 293.145 149.12 289.77 149.021 286.674C148.914 283.337 150.386 279.804 150.404 276.348C150.415 273.902 148.25 267.839 149.162 265.919ZM215.744 340.655C215.407 342.866 215.676 347.606 212.7 348.081C210.652 348.41 209.393 346.4 208.641 344.717C206.374 339.63 207.123 332.846 206.277 327.381C205.277 320.929 205.253 314.568 204.48 308.107C203.798 302.41 201.525 295.224 202.764 289.61C203.888 289.581 206.923 300.566 207.578 302.308C208.926 305.895 210.478 308.913 211.645 312.631C213.19 317.556 214.53 322.259 215.242 327.412C215.742 331.035 217.62 337.467 215.744 340.655ZM232.202 316.366C229.426 320.821 226.427 325.464 222.514 329.18C222.514 327.102 221.011 320.345 222.03 318.739C223.244 316.825 230.133 316.737 232.202 316.366ZM124.498 140.907C126.858 139.8 129.489 139.452 131.869 138.308C134.143 137.215 135.832 136.555 138.357 136.34C147.131 135.596 156.066 137.917 164.184 140.456C168.652 141.854 172.176 144.915 175.951 147.568C179.855 150.311 181.996 152.7 183.695 157.342C187.353 167.328 189.603 176.769 191.058 187.3C192.535 197.983 190.137 208.782 190.287 219.488C190.434 230.05 191.164 241.046 194.41 251.102C196.919 258.878 201.367 271.395 210.742 272.17C219.641 272.906 227.17 263.422 230.848 256.302C240.575 237.478 244.23 215.961 244.757 194.834C246.13 187.764 246.916 180.142 249.296 173.362C251.943 177.64 254.101 182.232 256.535 186.642C259.205 191.482 259.034 195.431 258.802 200.931C258.623 205.208 257.164 209.294 256.633 213.552C256.02 218.468 254.895 223.262 254.624 228.227C254.306 234.082 254.622 239.998 254.145 245.838C253.745 250.75 252.695 255.682 251.934 260.549C251.195 265.277 251.104 269.932 251.213 274.646C251.318 279.208 252.844 283.639 256.584 286.081C251.025 293.171 244.095 303.612 234.784 305.292C231.662 305.855 228.746 306.294 225.585 306.533C223.015 306.727 220.012 308.217 217.795 306.561C213.979 303.71 213.227 297.355 211.785 293.2C210.788 290.325 200.898 266.783 195.692 273.453C194.765 274.641 194.983 279.002 194.842 280.676C194.637 283.089 194.731 285.542 194.657 287.963C194.562 291.045 194.298 294.171 194.505 297.252C194.63 299.11 195.71 301.116 193.674 301.564C191.79 301.978 187.817 298.108 186.446 297.106C184.606 295.762 182.622 294.753 180.758 293.457C176.926 290.795 173.886 287.442 171.159 283.642C168.413 279.818 165.969 275.528 164.112 271.162C163.168 268.947 162.398 266.676 161.61 264.401C161.627 264.452 160.44 261.582 160.506 261.382C160.715 260.74 163.224 259.675 163.844 259.169C170.924 253.393 172.342 239.029 170.46 230.628C169.321 225.544 165.552 221.078 162.876 216.751C160.29 212.57 157.555 208.475 155.41 204.025C153.045 199.124 151.217 193.978 149.096 188.965C148.072 186.547 146.843 185.302 148.372 183.086C149.309 181.728 151.249 181.172 152.083 179.685C152.924 178.19 153.011 175.304 151.499 174.235C149.845 173.064 147.442 174.699 145.927 175.336C143.905 176.186 141.885 176.598 139.821 177.251C137.478 177.995 135.369 179.637 132.882 179.637C134.22 174.876 139.998 175.328 141.872 170.901C143.153 167.875 142.986 162.245 138.993 161.747C136.726 161.463 134.937 163.251 133.251 164.451C131.032 166.029 129.358 166.323 126.758 166.818C125.801 167 124.247 167.928 123.339 167.612C121.866 167.102 122.716 167.417 123.487 166.166C124.634 164.304 127.346 162.488 128.986 161.129C132.671 158.076 137.779 155.875 140.972 152.324C143.082 149.977 144.12 142.084 140.109 140.824C138.501 140.318 135.885 141.967 134.31 142.471C131.647 143.323 128.935 144.001 126.308 144.972C121.641 146.698 117.159 148.747 112.425 150.295C115.122 146.326 120.246 142.903 124.498 140.907ZM282.308 139.744C282.308 142.471 283.315 147.656 282.179 150.136C281.154 152.369 274.933 153.614 272.735 154.466C265.62 157.229 258.562 160.306 251.289 162.593C258.785 151.118 269.925 144.456 282.308 139.744ZM281.259 102.689C279.416 105.427 276.21 109.138 272.46 107.844C268.418 106.45 265.251 100.052 267.316 95.9917C269.081 92.5239 274.116 90.3475 277.225 93.081C277.903 93.6771 278.346 95.2019 278.995 95.6681C279.412 95.9669 280.072 95.1674 280.581 95.4872C282.085 96.4309 282.664 98.735 284.833 98.542C285.837 98.4535 289.054 95.7424 289.713 95.0495C291.474 93.1944 290.86 91.2934 291.139 88.8557C291.523 85.4968 293.764 84.9818 296.344 83.249C298.801 81.5981 300.775 79.1371 303.205 77.5477C306.105 75.649 304.443 78.056 307.093 78.294C307.571 78.3375 308.638 76.6956 309.468 76.7226C310.543 76.7587 311.01 77.4982 311.623 78.3052C312.959 80.0583 311.976 80.6086 314.304 81.017C315.983 81.312 317.023 80.0508 318.459 80.0755C319.634 78.7009 321.373 75.8307 323.473 76.6783C324.894 77.2519 325.403 80.33 325.708 81.6153C326.862 86.4878 326.775 92.2146 326.818 97.2117C324.116 95.2522 323.766 93.9361 322.922 90.7769C322.374 88.7243 321.05 85.7077 319.605 88.7911C319.195 89.6665 319.547 91.0081 319.275 91.9699C318.961 93.0847 318.208 93.6343 318.09 94.8505C317.807 97.8018 320.145 98.8131 322.163 100.25C320.28 102.348 314.862 100.764 316.307 105.243C317.834 109.975 323.702 107.355 326.63 106.168C329.125 115.944 318.039 120.654 311.284 123.328C307.316 124.898 305.765 125.772 305.219 130.559C304.752 134.662 305.287 138.863 306.743 142.696C307.326 144.232 307.884 146.331 308.68 147.753C309.355 148.957 310.699 149.041 311.152 149.713C312.821 152.192 311.619 157.569 311.424 160.544C310.89 168.677 308.439 176.084 307.385 184.021C306.845 188.08 305.227 191.881 304.533 195.893C303.897 199.574 303.645 203.049 300.644 205.681C294.613 210.97 289.95 203.159 287.86 198.025C284.883 190.712 284.586 181.1 285.077 173.302C285.612 164.825 289.363 156.681 289.562 148.267C289.774 139.268 288.459 130.725 286.282 122.024C285.329 118.222 283.944 114.818 282.768 111.141C281.808 108.135 283.398 105.421 281.259 102.689ZM296.936 13.6674C296.936 13.6742 296.936 13.6803 296.938 13.6872C296.899 13.6429 296.861 13.6007 296.819 13.5489C296.863 13.6027 296.901 13.6395 296.936 13.6674ZM297.116 12.8245C297.026 12.1893 296.829 11.39 296.694 11.0305C297.021 11.2382 297.392 11.4125 297.404 11.6304C297.439 12.2554 297.265 12.5495 297.116 12.8245ZM306.069 14.4293C306.006 14.466 305.945 14.5062 305.882 14.5416C305.732 14.5416 305.607 14.5089 305.496 14.4578C305.539 14.4674 305.585 14.4749 305.639 14.479C305.785 14.4899 305.928 14.4674 306.069 14.4293ZM310.748 12.8354C309.91 12.8286 309.027 12.7476 308.048 13.1867C308.203 13.0901 308.359 13.0036 308.516 12.9457C308.955 12.785 309.882 12.8028 310.748 12.8354ZM263.282 250.638C263.462 246.566 263.459 245.345 266.554 242.72C269.134 240.532 271.629 238.235 274.236 236.08C280.008 231.306 286.175 226.251 292.737 222.686C296.413 220.69 306.445 216.665 303.91 224.549C301.517 231.988 296.901 238.596 292.926 245.206C288.874 251.943 284.821 258.686 280.612 265.32C278.781 268.205 276.849 271.035 275.097 273.971C273.373 276.863 273.196 278.812 269.66 277.615C267.091 276.745 264.189 275.685 261.765 274.553C259.637 273.559 259.764 272.952 259.706 270.366C261.023 263.683 262.976 257.554 263.282 250.638ZM279.75 169.183C278.856 172.907 272.438 173.35 268.976 174.073C268.381 174.196 265.365 175.205 264.803 174.859C263.692 174.176 264.238 172.202 263.765 171.247C261.173 166.015 261.135 172.703 260.397 174.278C258.376 178.594 255.28 169.955 254.146 167.839C253.272 166.211 252.336 165.383 253.241 164.017C253.993 162.879 258.182 162.098 259.468 161.608C264.16 159.816 268.839 157.992 273.518 156.166C275.532 155.38 281.734 151.263 281.667 155.219C280.998 159.773 280.82 164.729 279.75 169.183ZM276.243 213.652C274.269 214.286 268.908 216.829 266.912 215.63C265.227 214.618 266.391 211.07 266.581 209.223C266.938 205.743 266.886 201.956 266.695 198.465C266.413 193.309 265.998 192.901 270.92 191.514C272.822 190.978 278.63 188.074 280.042 189.712C280.703 190.476 280.423 192.907 280.568 193.834C280.883 195.839 281.424 197.799 282.133 199.692C283.357 202.965 285.146 205.903 287.016 208.813C283.661 210.947 279.994 212.446 276.243 213.652ZM265.098 177.19C265.95 175.923 270.192 175.743 271.594 175.437C274.073 174.895 276.553 174.359 279.032 173.817C279.165 176.938 280.872 185.089 278.7 187.341C277.479 188.608 273.394 188.934 271.665 189.374C269.781 189.853 267.894 190.324 266.007 190.794C265.793 187.786 265.615 184.776 265.305 181.776C265.192 180.673 264.405 178.22 265.098 177.19ZM265.588 218.393C266.891 216.841 270.421 216.886 272.383 216.413C275.508 215.657 278.47 214.625 281.428 213.347C283.083 212.633 286.344 210.185 288.174 210.805C288.687 210.979 289.759 213.162 290.149 213.571C290.816 214.272 291.678 214.747 292.451 215.302C294.581 216.827 295.874 217.302 298.386 217.818C285.247 223.387 274.691 233.296 263.823 242.436C263.051 241.768 263.48 235.793 263.565 234.422C263.722 231.878 263.827 229.301 264.012 226.748C264.163 224.651 264.202 220.041 265.588 218.393ZM305.488 272.575C305.092 274.893 305.031 278.076 304.07 280.217C303.189 282.178 303.296 282.041 300.952 282.1C297.991 282.174 294.595 282.687 291.727 281.755C294.287 275.911 296.418 269.559 299.922 264.227C301.022 262.552 303.146 258.265 305.448 258.521C307.758 258.777 307.251 261.172 307.068 262.904C306.726 266.138 306.036 269.372 305.488 272.575ZM317.023 181.404C318.801 168.795 318.651 156.469 318.651 143.772C321.489 144.16 324.615 143.915 327.351 144.745C326.468 147.656 323.92 150.282 326.442 153.047C329.003 155.855 334.972 157.085 338.432 158.119C342.485 159.33 346.618 160.81 350.784 161.53C352.656 161.852 354.695 162.166 356.584 161.791C359.574 161.198 359.838 160.377 361.804 163.561C361.814 163.578 361.831 163.604 361.842 163.623C361.274 163.286 359.472 163.488 359.952 163.503C360.023 163.759 360.127 164.015 360.189 164.253C359.658 163.801 358.485 163.422 358.323 163.391C356.367 163.036 353.886 163.943 352.003 164.392C347.78 165.401 343.588 166.5 339.498 167.993C336.055 169.25 332.645 170.657 329.361 172.308C326.826 173.582 320.971 175.827 320.171 178.95C318.637 184.937 333.939 189.486 337.671 191.513C341.195 193.427 340.082 196.265 340.122 200.068C340.165 204.198 340.527 208.289 340.25 212.41C340.036 215.603 339.799 215.108 336.718 215.051C334.41 215.008 332.102 214.912 329.796 215.054C326.543 215.253 323.203 215.72 320.15 216.942C315.583 218.771 306.811 227.477 315.552 230.131C319.151 231.223 323.792 230.824 327.481 230.56C330.68 230.332 335.694 228.826 338.781 229.963C340.391 229.492 340.971 230.097 340.523 231.777C340.597 232.929 340.672 234.081 340.745 235.233C340.895 237.551 341.044 239.869 341.193 242.187C341.498 246.93 341.803 251.675 342.107 256.418C339.425 252.488 335.735 244.737 330.019 245.623C325.114 246.382 322.213 254.245 320.634 258.303C319.35 261.6 318.52 265.055 317.652 268.487C316.818 271.787 316.513 276.452 314.988 279.442C313.485 282.388 311.397 281.399 308.321 281.702C304.475 282.08 306.025 279.855 306.636 276.477C307.568 271.33 310.862 262.452 307.685 257.655C303.628 251.533 297.897 262.877 296.339 265.941C294.882 268.805 293.639 271.774 292.524 274.796C291.803 276.747 291.221 280.959 289.361 282.026C287.085 283.334 283.475 281.243 281.384 280.559C278.927 279.755 276.244 279.42 273.721 278.894C280.902 267.275 288.37 255.83 295.337 244.074C298.82 238.197 303.213 232.026 305.126 225.376C305.49 224.117 305.935 222.914 305.786 221.574C305.658 220.431 303.996 218.633 304.102 217.84C304.258 216.664 306.541 215.683 307.61 214.447C311.32 210.153 312.252 205.042 313.404 199.584C314.657 193.643 316.177 187.405 317.023 181.404ZM331.043 145.369C336.512 144.152 342.727 147.399 347.3 150.022C350.318 151.752 358.37 155.368 358.681 159.605C358.597 158.456 351.191 159.173 349.727 159.21C343.47 157.81 336.798 155.921 330.959 153.131C328.833 152.114 326.336 151.119 327.111 148.51C327.619 146.796 329.492 145.715 331.043 145.369ZM324.698 228.721C321.241 228.516 308.688 228.657 315.005 222.179C318.96 218.121 326.243 217.241 331.504 217.219C333.389 217.211 335.246 217.365 337.119 217.563C337.631 217.627 338.146 217.689 338.659 217.752C340.228 217.43 340.717 218.101 340.128 219.765C340.409 220.739 340.86 226.513 340.033 227.325C338.934 228.402 335.439 227.927 334.152 228.031C330.989 228.286 327.872 228.741 324.698 228.721ZM343.057 277.8C333.961 279.201 324.881 280.987 315.657 281.136C317.034 274.187 318.638 267.253 321.144 260.633C322.747 256.404 325.655 247.27 331.261 247.719C335.736 248.078 340.958 256.003 342.205 260.052C343.831 265.329 343.057 272.311 343.057 277.8ZM366.417 172.169C366.236 173.133 362.153 174.865 361.28 175.389C354.983 179.171 349.374 184.778 345.605 191.149C345.186 188.69 345.253 184.026 343.258 182.279C339.749 179.204 340.47 186.094 340.05 188.198C339.657 190.172 340.146 189.852 338.499 190.028C337.039 190.183 333.311 187.356 331.964 186.643C328.238 184.674 324.668 182.531 321.089 180.295C324.054 175.233 332.797 172.908 337.775 170.883C344.93 167.973 351.984 166.484 359.555 165.279C360.822 165.96 360.986 164.428 361.932 164.085C361.985 164.006 362.002 163.939 362.005 163.877C363.116 165.585 366.688 170.735 366.417 172.169ZM375.68 240.392C379.204 257.128 380.081 274.54 384.532 291.073C388.765 306.79 392.522 322.437 397.411 337.941C400.227 346.871 402.842 355.891 406.606 364.467C409.231 370.448 411.315 383.204 417.709 386.003C421.896 387.836 423.752 386.214 423.305 381.825C422.917 378.007 421.002 375.608 419.42 372.311C418.87 371.162 417.077 367.92 417.272 366.702C417.515 365.187 417.887 365.35 419.416 364.601C422.661 363.01 425.897 361.932 429.352 361.011C427.958 363.246 425.174 366.442 424.95 369.176C424.765 371.431 426.332 375.568 428.5 376.433C430.549 377.251 432.959 375.526 434.714 374.475C436.744 373.256 438.68 372.918 440.915 372.053C438.066 376.295 433.399 379.675 435.398 385.512C437.529 391.737 444.143 386.645 448.372 385.942C447.164 390.765 441.805 396.265 437.95 398.95C435.362 400.751 432.554 402.376 429.777 403.835C428.702 404.399 427.289 404.744 426.301 405.417C425.926 405.673 425.294 406.758 424.953 406.929C420.155 409.323 413.613 409.934 408.393 411.085C402.643 412.353 397.693 412.663 391.772 412.369C386.875 412.126 381.449 409.016 377.356 406.404C374.245 404.419 373.79 401.992 372.822 398.487C371.216 392.678 369.778 386.832 368.246 381.003C366.925 375.978 366.309 371.15 365.414 366.052C363.518 355.246 362.644 344.27 360.61 333.484C358.589 322.769 357.914 311.915 357.354 300.963C357.085 295.688 356.254 290.307 356.001 285.135C355.796 280.928 355.865 276.694 355.887 272.368C355.904 269.326 354.861 266.287 354.932 263.235C354.994 260.536 355.234 258.106 354.958 255.38C354.371 249.571 353.911 243.832 353.468 238.014C352.607 226.676 350.071 215.487 349.06 204.197C348.623 199.314 353.808 194.632 357.32 191.788C361.064 188.758 364.067 184.501 368.187 182.116C369.713 201.698 371.634 221.18 375.68 240.392ZM313.638 449.754C309.576 451.626 305.516 453.501 301.452 455.369C298.464 456.743 294.545 459.566 291.262 459.312C293.596 456.044 295.067 452.306 297.556 449.132C300.041 445.962 302.092 442.596 304.339 439.247C307.292 442.971 310.311 446.382 313.638 449.754ZM314.502 433.321C320.647 429.971 329.378 423.605 336.581 424.806C341.769 425.671 347.645 429.596 350.777 433.92C352.247 435.948 353.717 437.84 355.398 439.827C356.939 441.648 357.73 441.412 356.383 443.311C355.346 444.772 352.903 445.762 351.313 446.327C351.313 443.13 352.275 439.925 348.559 440.241C347.093 440.365 345.384 440.728 343.922 440.974C342.663 441.187 341.933 441.752 340.86 442.013C339.715 442.292 338.346 441.964 337.159 442.06C335.115 442.226 333.479 443.073 331.543 443.516C327.537 444.433 324.156 445.701 320.255 447.056C318.47 444.236 316.971 440.847 314.547 438.542C311.837 435.964 310.681 435.404 314.502 433.321ZM261.786 11.0741C262.376 11.0101 263.05 10.6309 263.505 9.84039C262.708 11.2239 262.238 11.2865 261.786 11.0741ZM243.366 13.2773C244.081 13.4114 244.786 13.5755 245.377 13.8621C245.959 14.144 246.274 14.4653 246.584 14.7472C246.439 14.6818 246.282 14.6117 246.105 14.5354C245.337 14.2039 244.355 13.6055 243.366 13.2773ZM332.289 16.0333C332.421 16.0728 332.536 16.0898 332.642 16.0959C332.498 16.1109 332.382 16.0885 332.289 16.0333ZM335.45 18.2222C335.065 17.8538 334.838 17.493 334.721 17.1315C334.781 17.1697 334.846 17.2043 334.919 17.2343C335.034 17.1172 335.148 17.0001 335.262 16.8823C335.104 17.1873 335.049 17.4814 335.171 17.7456C335.761 19.0201 336.481 17.0825 337.37 18.0411C336.704 17.9567 335.892 18.2222 335.45 18.2222C334.424 19.6778 333.397 21.1341 332.371 22.5897C333.761 23.3067 334.196 22.4215 334.972 23.7281C335.009 23.7914 335.043 23.9466 335.073 24.1516C334.75 23.1991 333.908 23.3822 332.371 22.5897C333.397 21.1341 334.424 19.6778 335.45 18.2222ZM336.882 23.7567C336.927 23.8411 336.976 23.9174 337.028 23.9882C336.976 23.9153 336.926 23.8411 336.882 23.7567ZM335.338 29.4852C333.871 28.673 335.145 27.6504 335.206 26.4024C335.211 26.2914 335.213 26.1975 335.216 26.0953C335.227 26.397 335.229 26.6441 335.221 26.7653C335.122 28.5286 333.911 29.0196 336.115 29.554C336.266 29.5907 336.461 29.6098 336.683 29.6187C336.119 29.6609 335.628 29.6459 335.338 29.4852ZM358.09 42.5899C357.999 41.8689 361.261 40.2955 361.682 40.1022C361.166 40.3398 358.003 41.9064 358.09 42.5899ZM361.801 36.205C361.779 36.1956 361.755 36.1928 361.733 36.1826C361.738 36.1295 361.733 36.0798 361.733 36.0281C361.748 36.0934 361.768 36.154 361.801 36.205ZM363.538 42.0283C363.556 41.9499 363.591 41.7409 363.629 41.4918C363.687 41.7995 363.75 42.0882 363.811 42.34C363.739 42.242 363.654 42.1392 363.538 42.0283ZM361.003 41.984C361.001 40.7619 361.372 41.0227 361.603 41.0594C361.392 41.3869 361.002 41.4481 361.003 41.984ZM357.561 44.6679C357.903 44.5984 358.192 44.8019 358.458 45.0369C357.879 44.8782 357.402 44.6992 357.561 44.6679ZM356.667 93.9669C356.811 93.7154 357.123 93.6321 357.475 93.5923C357.032 93.7672 356.69 94.1418 356.61 94.6854C356.522 94.4842 356.5 94.2567 356.667 93.9669ZM359.233 86.153C359.209 86.1454 359.183 86.1357 359.16 86.1334C358.442 86.0756 358.129 86.5561 358.052 87.2911C358.1 86.65 358.307 86.1274 358.844 85.957C358.816 85.8992 358.792 85.8451 358.766 85.7888C358.902 85.9172 359.06 86.0388 359.233 86.153ZM358.381 90.1095C358.366 90.0224 358.349 89.927 358.329 89.8279C358.41 90.1778 358.501 90.5254 358.595 90.8595C358.502 90.5907 358.421 90.3339 358.381 90.1095ZM359.182 77.8367C359.142 77.8683 359.095 77.8953 359.046 77.9208C359.095 77.8953 359.14 77.8675 359.182 77.8367ZM358.779 78.0297C358.697 78.0522 358.606 78.0717 358.506 78.0845C358.605 78.0717 358.696 78.053 358.779 78.0297ZM359.517 69.1489C359.527 69.477 359.527 69.8043 359.537 70.1144C359.486 69.8096 359.481 69.5093 359.517 69.1489ZM501.908 507.152C499.946 505.329 493.373 505.207 490.763 504.695C496.41 499.111 500.655 484.995 489.867 483.182C487.479 482.781 486.803 483.732 486.257 480.937C485.922 479.223 486.604 477.645 485.782 475.939C483.83 471.888 476.413 472.34 472.707 471.757C473.592 468.54 475.764 462.793 472.492 460.181C469.912 458.121 464.54 460.871 461.797 461.753C454.388 464.137 446.861 466.858 440.611 471.659C437.81 467.751 434.88 463.894 432.531 459.668C430.29 455.637 428.902 451.179 426.795 447.075C424.683 442.959 422.44 438.106 419.49 434.568C416.992 431.572 413.566 431.277 410.271 429.846C401.91 426.22 394.665 426.428 385.929 427.769C377.197 429.109 369.627 434.388 362.232 438.994C359.328 428.876 352.614 417.882 342.205 414.762C337.534 413.361 332.62 414.713 328.349 416.915C323.057 419.644 318.896 424.283 313.721 426.867C319.622 416.425 327.071 406.604 333.556 396.743C337.113 391.335 341.607 386.507 345.081 380.996C348.622 375.378 351.231 369.132 353.8 363C355.971 368.723 356.338 374.744 358.331 380.487C360.161 385.759 361.414 391.167 363.495 396.352C365.667 401.764 367.586 407.104 370.522 412.141C372.198 415.014 376.326 423.964 379.368 418.223C386.14 422.951 392.675 425.805 401.144 425.598C405.022 425.503 409.34 425.377 413.05 424.479C416.82 423.569 420.421 422.342 424.167 421.468C427.13 420.777 429.839 418.907 432.535 417.522C435.635 415.929 438.707 413.065 441.101 410.553C444.065 407.442 447.128 404.448 450.108 401.357C453.057 398.299 452.844 395.177 454.421 391.376C456.068 387.41 456.774 383.905 454.596 379.903C453 376.971 450.178 377.375 449.518 374.406C448.891 371.589 449.5 368.934 447.788 366.349C446.489 364.388 441.814 363.077 441.799 361.075C441.786 359.42 443.449 357.956 443.383 355.971C443.323 354.199 442.484 351.349 441.563 349.85C439.831 347.029 437.194 346.933 434.219 347.796C427.032 349.877 419.987 355.231 415.044 360.854C408.268 341.67 402.931 322.065 397.975 302.443C395.785 293.777 394.07 284.995 392.677 276.157C391.3 267.407 389.211 258.592 388.28 249.797C387.721 244.521 386.151 239.585 385.416 234.374C384.809 230.06 384.404 225.712 383.805 221.395C382.483 211.831 380.646 202.413 379.216 192.872C378.426 187.599 376.643 182.986 375.271 177.908C374.094 173.553 373.393 169.83 371.426 165.716C367.674 157.87 363.815 148.26 356.526 143.274C350.043 138.839 343.754 135.134 335.853 134.226C331.218 133.693 327.484 134.818 322.951 135.335C318.938 135.793 315.502 138.086 311.588 138.911C311.588 135.067 311.225 134.963 314.62 133.595C316.575 132.808 318.483 131.942 320.475 131.257C322.574 130.535 324.163 129.831 325.953 128.504C328.065 126.938 326.733 127.436 329.264 127.976C333.255 128.831 332.079 127.84 334.704 125.785C336.23 124.589 337.79 125.319 339.577 125.558C341.244 125.78 343.988 126.543 345.261 124.991C346.229 123.81 345.174 121.786 345.887 120.503C347.013 118.479 350.24 118.571 351.963 117.211C353.848 115.723 354.018 114.046 353.609 111.758C353.327 110.175 350.912 106.657 351.048 105.295C351.138 104.387 351.601 104.122 352.198 104.047C356.918 104.294 356.69 103.559 355.538 99.2357C355.471 99.8762 355.43 100.42 355.383 100.89C355.371 100.218 355.376 99.5916 355.538 99.2357C355.661 98.9677 356.103 98.7951 356.502 98.5788C356.397 98.6869 356.287 98.7973 356.157 98.9212C356.358 99.8401 356.417 102.241 357.271 102.894C357.882 103.362 360.024 103.314 360.456 102.532C361.36 100.9 358.251 99.9738 358.13 98.762C361.699 98.4535 360.482 96.6554 358.615 94.8198C358.542 94.316 358.824 94.0773 359.466 94.1043C359.147 93.7604 358.753 93.5645 358.359 93.5014C358.637 93.4534 358.879 93.3693 359.006 93.1651C359.118 92.9856 359.125 92.7371 359.084 92.4594C359.153 92.6733 359.214 92.8573 359.258 92.9992C362.338 94.2837 360.755 87.466 359.477 86.3038C359.576 84.4119 359.674 82.5208 359.771 80.6296C358.893 81.2287 358.224 82.1626 357.995 83.1379C358.026 82.2377 358.535 81.4734 359.771 80.6296C357.792 79.7287 357.597 79.6191 359.722 79.4269C361.484 81.0876 361.239 79.7091 362.33 78.6949C362.264 78.7549 363.981 76.8255 363.867 77.1205C364.683 75.0341 363.782 70.6324 360.495 72.0656C362.28 73.7181 360.488 74.0221 359.865 75.4426C359.844 75.4899 359.828 75.5402 359.81 75.5897C359.843 75.42 359.888 75.2556 359.955 75.1047C361.057 72.658 361.318 74.5364 360.106 71.7533C360.104 71.7518 360.104 71.7495 360.103 71.7465C360.423 71.914 360.924 71.8787 361.72 71.5326C362.713 70.2803 363.012 70.7923 363.544 69.1789C364.01 67.7682 363.794 66.805 362.864 66.2802C362.97 66.3088 363.076 66.3411 363.183 66.3688C363.594 65.2832 363.023 64.2494 362.073 63.7502C361.688 64.3996 361.304 65.0497 360.922 65.6999C361.095 65.7577 361.269 65.8095 361.444 65.8643C361.442 65.8643 361.44 65.8643 361.439 65.8636C360.22 65.7179 359.727 65.9439 359.544 66.525C359.482 66.2645 359.466 66.0077 359.606 65.775C359.754 65.5265 360.807 65.8951 360.922 65.6999C362.81 62.5017 360.815 59.8387 357.777 58.2095C356.623 57.5909 354.348 57.5699 353.941 56.1217C353.653 55.0984 355.087 52.6224 355.362 51.4084C357.482 50.4031 353.568 49.8153 353.542 49.8107C353.424 51.2425 353.5 51.8768 354.3 51.7657C353.495 51.8783 353.424 51.2379 353.542 49.8107C354.692 49.9932 358.087 49.6658 359.751 48.4962C362.506 48.5772 363.924 49.0708 365.595 46.6014C363.962 45.9008 362.039 46.278 360.573 45.2023C360.642 45.5257 360.697 45.8192 360.732 46.0901C360.605 45.6898 360.329 45.3453 359.959 45.0185C360.198 45.2309 360.074 45.299 359.79 45.2894C359.844 45.2139 359.901 45.1267 359.959 45.0185C360.058 43.8202 360.91 44.3084 361.773 44.3832C361.75 43.9979 361.603 43.6739 361.443 43.3525C361.601 43.6609 361.749 43.9768 361.773 44.3832C362.32 44.0238 362.866 43.6643 363.413 43.3041C363.711 43.2149 363.889 43.0904 363.959 42.9337C363.96 42.9365 363.96 42.9399 363.961 42.9426C366.574 43.7487 365.779 38.0256 364.576 38.0549C364.254 38.0631 364.021 38.1856 363.849 38.3796C363.886 37.852 363.973 37.2937 364.182 36.5121C364.305 36.1758 364.426 35.8395 364.549 35.5031C363.89 35.5467 361.758 34.2307 361.72 35.8007C361.679 35.5174 361.571 35.2533 361.384 35.0129C361.575 33.2762 360.586 33.4238 359.053 32.9385C358.485 32.758 357.856 31.6312 357.215 32.1044C356.251 32.8152 356.831 33.4845 357.45 33.991C357.359 34.5813 357.086 35.0531 356.63 35.4058C356.561 35.3383 356.494 35.2866 356.428 35.2342C356.855 34.9762 357.214 34.5656 357.45 33.991C355.48 32.3794 354.648 33.434 353.132 34.7304C353.736 35.2498 354.436 35.5296 355.106 35.5583C355.071 35.6345 355.038 35.7115 355.008 35.8027C354.248 35.7046 353.622 35.3472 353.132 34.7304C354.742 33.353 354.597 32.5088 352.639 31.6918C351.977 31.4161 351.558 32.0302 350.74 31.7054C350.333 31.5441 350.039 30.8115 349.643 30.5691C346.679 28.756 343.12 29.7882 339.964 29.3586C340.359 29.3062 340.712 29.2551 340.981 29.2183C340.668 28.0936 339.821 27.6068 338.93 27.2643C338.932 26.6237 338.932 25.9823 338.932 25.3416C338.805 25.3124 338.684 25.2988 338.567 25.2954C338.773 25.1265 338.896 24.8971 338.867 24.5063C338.105 24.7909 337.459 24.5812 337.042 24.0114C337.871 25.1054 339.486 24.5328 339.978 23.1297C340.495 21.6591 339.388 20.6711 338.425 19.5798C338.448 18.5313 338.016 18.1541 337.459 18.0534C338.465 16.0135 338.69 17.0253 337.611 14.4742C337.522 12.7551 336.111 13.3794 335.159 14.4837C335.259 14.2305 335.362 13.9703 335.46 13.6994C334.712 13.647 333.963 13.5945 333.215 13.5408C333.405 14.1685 333.825 15.2864 333.273 15.8196C333.64 15.2742 333.379 14.0827 333.215 13.5408C332.297 13.0124 331.381 12.4841 330.464 11.9544C330.542 12.1239 330.752 12.7619 331.014 13.4842C330.309 12.4691 329.733 11.8401 328.772 10.795C328.303 10.285 326.466 7.83743 325.957 7.68488C322.844 6.75213 320.489 13.0451 316.692 12.1838C314.452 11.6759 315.498 11.0768 313.382 11.5017C312.223 9.94595 304.662 12.3922 304.371 13.8723C304.513 13.8328 304.621 13.8165 304.709 13.8138C303.857 14.1297 303.115 14.6158 302.289 14.9446C300.219 15.7698 301.451 15.9849 299.101 14.596C298.3 14.1222 298.004 14.2707 297.692 14.227C298.703 13.7573 299.191 10.5056 299.205 9.34617C299.242 6.57585 298.888 7.06197 299.933 5.0753C298.966 5.05961 298.285 4.97447 297.777 5.21209C297.923 4.74099 298.027 4.27867 298.024 3.83136C298.547 2.36625 298.086 0.640314 296.467 0.232499C294.019 -0.385004 293.538 3.24862 295.313 3.84367C293.615 3.27444 294.296 0.975982 291.985 0.66479C292.833 0.619895 293.359 0.785362 294.149 1.78891C294.411 1.24423 294.672 0.700224 294.933 0.155545C293.093 -0.0432567 292.243 -0.204594 290.757 0.688664C289.303 0.956912 288.278 2.04552 287.182 3.1083C284.192 6.00257 281.508 8.82731 278.757 11.9674C277.343 8.96553 275.782 6.78006 273.489 10.1393C271.417 13.1711 269.741 17.3616 268.664 20.887C266.513 19.8664 267.42 19.5335 266.517 17.8804C267.456 19.4906 266.501 19.861 268.664 20.887C268.879 20.1837 269.094 19.4797 269.309 18.7764C267.425 16.5576 267.505 14.353 265.466 11.9871C265.24 12.7456 265.89 13.826 266.003 14.5096C266.129 15.2674 265.317 15.7936 265.502 16.6086C266.264 16.3206 266.44 16.4942 266.465 16.8094C266.438 16.4949 266.259 16.3226 265.502 16.6086C265.2 15.2776 265.95 14.5702 265.531 13.0839C265.362 12.4835 265.115 12.0443 264.818 11.6195C266.116 9.37612 261.92 7.82174 260.943 9.1569C260.82 9.32507 260.736 9.4816 260.671 9.63281C259.032 8.87093 258.527 10.492 257.762 11.7093C257.581 12.0899 257.398 12.4711 257.217 12.8525C256.252 13.6715 255.356 15.3852 254.63 16.5065C253.076 18.9037 252.426 22.412 250.523 24.4096C250.588 23.1228 251.266 20.2702 249.031 21.4208C249.769 21.0408 249.876 20.5792 249.713 20.0441C249.852 20.1251 250.003 20.1987 250.178 20.2586C250.491 20.2906 250.807 20.3219 251.121 20.3532C251.082 18.5313 249.926 17.3337 248.561 16.3648C248.561 16.8407 248.546 17.3303 248.576 17.7994C248.569 17.7823 248.561 17.7661 248.554 17.749C247.955 16.2654 248.209 15.8283 247.69 15.3736C247.893 15.424 248.127 15.46 248.414 15.4743C246.744 12.5556 244.524 12.0892 241.454 12.9117C241.664 12.9627 241.882 13.0063 242.105 13.0492C241.758 13.0499 241.421 13.1139 241.106 13.2725C239.915 13.8723 238.151 17.3201 237.324 18.5156C234.413 22.7232 233.057 27.8785 231.533 32.7417C231.105 34.1102 230.455 37.3176 228.8 37.7765C226.876 38.3102 224.838 35.0708 223.145 33.9883C217.726 30.5235 215.032 36.7443 214.197 41.6797C212.952 43.8631 213.239 45.5461 215.035 46.5803C214.533 45.8294 214.301 45.0294 214.206 44.2042C214.444 45.6067 215.576 46.0928 215.78 46.6934C215.892 47.0229 216.048 49.0218 216.044 49.4235C216.97 50.1373 217.039 50.6651 216.253 51.0067C215.772 51.3461 215.322 51.7259 214.901 52.1456C213.603 53.5601 213.615 55.5218 212.427 56.898C211.085 58.4543 209.852 57.7666 209.218 60.3252C208.132 64.7081 210.807 71.3269 215.622 71.7458C215.051 73.4718 214.311 75.2226 213.884 76.9921C213.318 79.3473 213.357 79.586 214.431 81.8391C206.423 80.6086 207.049 89.37 211.614 93.6734C212.694 94.6936 213.879 95.3288 215.274 95.7807C216.284 96.1081 219.332 95.9256 220.059 96.9159C221.588 99.003 218.173 101.717 217.871 104.046C217.84 104.285 217.827 104.694 217.838 105.169C216.577 106.764 216.639 106.896 218.44 108.388C219.428 109.702 222.477 109.388 223.405 110.644C224.831 112.578 221.65 115.692 223.244 117.952C224.513 119.747 225.835 118.628 227.865 119.389C228.848 119.853 229.83 120.318 230.811 120.785C231.271 120.455 231.774 120.247 232.321 120.163C233.467 120.76 232.373 121.81 233.818 122.162C234.569 122.407 236.304 123.337 237.062 122.855C235.987 123.539 235.265 125.229 234.646 127.088C234.059 128.082 233.516 129.176 233.733 129.998C233.37 131.136 233 132.174 232.557 132.897C235.056 133.29 234.761 135.724 236.491 137.059C238.828 139.127 239.217 137.208 238.665 136.2C238.898 136.322 239.139 136.481 239.387 136.663C239.434 136.697 238.932 137.925 239.424 138.212C240.114 138.614 240.114 138.21 240.831 138.203C241.507 138.194 242.487 137.146 243.312 137.058C243.751 137.012 245.05 137.633 245.318 137.449C246.067 136.936 246.009 136.374 245.718 135.694L246.052 136.384C246.858 138.558 247.263 138.069 248.484 137.446C248.154 137.614 249.441 136.622 249.706 136.701C249.104 134.978 246.72 135.159 245.25 134.728C246.181 135.001 247.692 135.011 248.549 135.393C249.982 136.031 249.529 136.679 251.227 136.878C251.94 136.962 254.855 136.143 255.37 135.607C255.418 135.556 255.452 135.494 255.479 135.425C255.744 134.989 256.008 134.552 256.271 134.115C257.348 134.244 256.182 135.956 257.872 135.275C259.136 134.765 258.52 134.056 258.119 133.283C257.987 133.029 257.839 132.849 257.684 132.719C259.428 133.151 261.503 135.578 263.885 134.899C265.229 134.515 265.304 133.567 266.289 132.681C267.605 131.497 268.012 131.679 269.606 131.106C270.571 130.76 271.6 129.994 272.571 129.815C274.153 129.525 273.716 129.705 275.027 130.394C275.811 130.805 276.257 131.579 277.246 131.728C278.15 131.865 279.569 130.79 280.3 131.085C282.291 131.889 281.784 134.777 281.897 136.681C271.822 133.366 260.046 138.664 252.631 145.938C250.62 147.911 249.305 150.249 247.518 152.394C245.579 154.722 243.751 155.779 243.479 159.094C243.244 161.953 244.491 163.669 243.506 166.416C242.562 169.048 241.531 171.404 240.841 174.149C237.541 187.256 237.438 200.867 234.993 214.154C232.73 226.45 229.499 237.403 224.175 248.673C221.706 253.898 219.637 257.097 214.223 259.3C209.843 261.082 206.637 258.746 204.496 254.681C198.736 243.743 197.916 232.493 197.986 220.292C198.019 214.431 198.666 208.569 199.212 202.741C199.779 196.701 199.355 191.059 198.948 185.028C198.132 172.937 195.464 162.566 191.447 151.194C189.543 145.8 187.937 140.542 183.35 137.033C180.781 135.068 178.201 132.611 175.19 130.911C172.781 129.552 171.346 128.323 168.599 127.714C166.792 127.314 165.146 126.696 163.401 126.115C159.283 124.747 154.521 124.323 150.202 124.338C140.118 124.374 129.05 127.883 119.973 132.383C115.453 134.623 110.545 137.959 107.568 142.209C106.34 143.964 105.503 145.909 104.669 147.883C103.67 150.242 103.984 150.674 101.869 150.592C100.545 150.54 99.0628 149.273 97.5455 149.205C95.8844 149.131 94.6685 149.73 93.1221 150.173C91.1596 150.735 89.3147 151.239 87.5693 152.405C83.3348 155.231 79.7532 159.735 76.5174 163.665C70.5934 170.858 65.2338 178.919 59.6918 186.245C54.2341 193.459 47.6041 199.861 39.1271 203.131C35.8934 204.379 32.3126 204.631 29.0107 205.64C27.5616 206.082 25.8068 207.257 24.2888 207.237C21.9035 207.205 22.0872 205.998 21.2614 204.041C20.2794 201.716 18.8594 199.907 17.0842 198.171C9.21075 190.466 -0.580973 201.882 0.0269702 210.676C0.382148 215.815 4.10825 219.204 3.97679 224.247C3.85331 228.965 4.12568 233.751 5.7534 238.228C7.58086 243.25 12.0747 248.459 16.0376 251.875C19.7085 255.04 24.3069 255.712 28.9315 256.241C31.0509 256.482 33.2503 257.134 35.3 257.096C37.0563 257.063 38.6535 256.328 40.4461 256.403C43.488 256.529 45.1179 256.509 47.968 255.393C50.0817 254.566 51.9883 254.106 54.29 254.16C54.29 259.174 54.598 264.077 55.0149 269.073C55.0694 269.733 55.511 271.447 55.2169 272.035C54.8551 272.761 54.4252 272.282 53.9734 272.805C52.8969 274.05 52.1169 274.661 51.3106 276.28C49.0989 280.719 48.422 285.683 49.2841 290.632C49.9596 294.512 52.167 296.111 51.6455 300.233C51.0317 305.076 49.8906 310.02 49.6706 314.895C49.5645 317.22 49.5384 318.976 49.0619 321.232C48.7873 322.541 47.8613 324.9 47.9361 326.223C47.9825 327.041 48.8215 327.403 48.8229 328.152C48.8244 328.805 48.0944 328.718 48.0443 329.278C47.891 330.966 47.8024 332.496 47.8373 334.193C47.883 336.49 47.6659 338.772 47.7494 341.069C47.8126 342.818 47.4189 346.958 49.3183 346.276C48.8113 347.512 48.6769 348.702 48.6268 349.889C48.6007 349.774 48.5898 349.656 48.5999 349.536C48.7154 348.167 48.7546 347.65 49.3183 346.276L48.2339 346.666C47.5714 348.434 48.3849 350.166 48.5673 351.925C48.5614 352.101 48.5556 352.277 48.5447 352.455C48.3922 355.01 48.5789 357.513 48.7634 360.062C49.1846 365.884 49.3837 372.374 50.9068 377.605C52.5766 383.34 52.0428 390.549 52.6863 396.864C53.4235 404.092 54.6184 411.204 55.5081 418.406C56.3027 424.836 56.6862 431.813 58.0496 438.076C59.1681 443.204 60.1138 448.199 60.7138 453.589C61.544 461.065 64.1827 466.759 67.0881 473.551C68.3163 476.426 68.4006 476.38 66.146 478.48C65.2011 479.359 64.3999 480.389 63.4375 481.247C61.5106 482.97 59.4056 483.972 56.8751 484.282C50.6453 485.046 44.3516 487.334 40.8521 492.885C37.4696 498.252 39.6616 504.54 42.1929 510.007C38.8518 510.301 29.8176 510.089 31.9313 516.379C33.3759 520.681 41.0795 519.24 44.4823 519.286C49.4548 519.355 54.4615 519.103 59.3904 519.033C61.634 519.001 61.8628 518.761 64.0476 519.645C66.1068 520.478 67.6779 520.57 69.9063 520.418C72.2785 520.257 74.6492 520.618 76.9481 520.265C79.8462 519.822 81.6489 519.447 84.5608 519.979C86.665 520.365 88.3516 520.175 90.4514 519.889C92.7793 519.57 94.983 519.762 97.3843 519.696C102.993 519.54 108.559 519.649 114.172 519.714C119.628 519.777 125.087 519.006 130.505 519.259C139.954 519.7 149.571 519.298 159.064 519.527C163.442 519.633 166.824 522.266 171.213 521.995C175.674 521.72 180.195 521.678 184.621 521.033C192.242 519.924 199.585 518.354 207.328 517.945C212.221 517.687 216.522 519.864 221.126 521.232C222.795 521.726 224.295 521.494 225.855 521.862C227.326 522.208 228.837 523.202 230.39 523.614C234.07 524.589 237.587 524.96 240.821 525.05C241.24 525.85 241.722 525.949 242.27 525.344C242.492 525.213 242.715 525.082 242.938 524.952C243.968 524.811 244.704 524.33 245.786 524.26C247.454 524.149 249.162 524.384 250.709 524.23C253.95 523.907 256.993 523.696 260.577 524.076C262.703 524.302 264.563 523.983 266.655 524.023C266.631 524.022 269.527 524.606 269.592 524.58C269.848 524.477 270.254 523.738 270.42 523.706C270.36 522.998 270.566 522.679 271.039 522.748C271.419 522.663 271.669 522.868 271.789 523.362C271.676 523.377 272.691 523.907 272.763 523.919C272.822 523.928 275.437 523.608 275.62 523.536C276.371 523.246 276.69 522.402 277.288 522.275C277.997 522.126 278.42 522.934 279.034 522.9C280.388 522.824 280.228 522.201 281.269 522.006C284.923 521.326 289.397 522.211 293.172 522.217C296.933 522.223 300.673 521.868 304.295 521.703C308.747 521.5 313.109 522.374 317.595 521.754C321.863 521.163 326.131 520.907 330.43 520.72C339.415 520.328 348.634 520.742 357.535 519.65C366.804 518.514 376.227 519.649 385.509 519.479C395.297 519.298 405.137 519.206 414.921 518.792C424.659 518.379 434.357 517.181 444.056 516.94C446.524 516.879 448.947 516.271 451.405 516.086C453.656 515.917 455.869 516.287 458.138 516.082C462.271 515.708 466.029 515.994 470.182 515.929C474.826 515.855 479.338 515.123 483.958 514.829C488.627 514.532 493.252 515.213 497.884 514.261C500.416 513.74 505.139 510.155 501.908 507.152Z" fill="#434343"/>
<path fill-rule="evenodd" clip-rule="evenodd" d="M318.542 80.1138C318.536 80.1138 318.53 80.1145 318.524 80.1138C318.5 80.1412 318.476 80.1709 318.455 80.1969L318.542 80.1138Z" fill="#434343"/>
<path fill-rule="evenodd" clip-rule="evenodd" d="M357.224 58.0078C357.811 55.8996 356.325 54.3899 355.33 52.7524C354.744 56.4672 352.944 56.3066 357.224 58.0078Z" fill="#434343"/>
<path fill-rule="evenodd" clip-rule="evenodd" d="M249.469 137.151C249.485 137.194 249.504 137.232 249.517 137.277C249.533 137.202 249.514 137.163 249.469 137.151Z" fill="#434343"/>
<path fill-rule="evenodd" clip-rule="evenodd" d="M233.255 134.369C233.388 134.679 233.68 136.826 233.892 136.837C235.774 136.929 233.48 133.297 232.277 133.084C230.538 134.245 233.296 134.464 233.255 134.369Z" fill="#434343"/>
<path fill-rule="evenodd" clip-rule="evenodd" d="M233.154 121.823C233.03 120.182 232.496 119.975 230.975 120.772C231.43 121.803 231.971 121.655 233.154 121.823Z" fill="#434343"/>
<path fill-rule="evenodd" clip-rule="evenodd" d="M212.09 81.6577C212.816 81.7831 213.543 81.9077 214.269 82.0324C213.843 81.0323 213.416 80.0301 212.989 79.0293C212.689 79.9062 212.39 80.7816 212.09 81.6577Z" fill="#434343"/>
<path fill-rule="evenodd" clip-rule="evenodd" d="M226.999 411.238C227 411.236 227 411.235 227.001 411.233C226.949 411.254 226.941 411.259 226.999 411.238Z" fill="#434343"/>
<path fill-rule="evenodd" clip-rule="evenodd" d="M78.8161 206.771C80.3545 204.112 83.2715 200.827 86.5923 201.933C89.6945 202.966 90.553 207.169 91.8902 209.813C94.4905 214.954 95.3003 209.434 95.8763 206.314C95.4064 200.065 93.0545 189.895 85.0982 190.972C79.0464 191.794 73.8204 201.842 74.9731 207.783C75.9413 212.777 77.5756 208.915 78.8161 206.771Z" fill="#434343"/>
<path fill-rule="evenodd" clip-rule="evenodd" d="M308.16 89.005C305.189 87.9089 305.192 91.2273 305.077 93.7221C304.972 96.0141 305.315 101.391 308.115 102.209C310.903 103.026 311.166 98.2777 311.598 96.358C310.948 94.0794 310.589 89.9007 308.16 89.005Z" fill="#434343"/>
<path fill-rule="evenodd" clip-rule="evenodd" d="M311.598 84.025C309.417 82.0325 307.961 81.4221 305.175 82.7089C303.741 83.3711 301.693 84.8118 301.469 86.6287C300.768 92.2834 309.676 85.185 311.598 84.025Z" fill="#434343"/>
<path fill-rule="evenodd" clip-rule="evenodd" d="M312.053 117.899C317.136 119.256 317.46 112.075 311.808 112.063C308.026 112.055 309.214 117.14 312.053 117.899Z" fill="#434343"/>
<path fill-rule="evenodd" clip-rule="evenodd" d="M273.198 95.5753C271.301 95.8614 270.631 97.0919 271.037 99.0559C271.507 101.322 272.696 101.34 274.823 101.552C279.95 101.569 276.604 95.0611 273.198 95.5753Z" fill="#434343"/>
<path fill-rule="evenodd" clip-rule="evenodd" d="M318.204 83.4148C318.673 84.7602 321.221 85.3675 322.553 84.8548C324.138 84.2444 324.467 82.7616 323.037 81.3997C321.813 80.2338 320.125 80.5416 318.592 80.6497C318.643 81.1588 317.912 82.5785 318.204 83.4148Z" fill="#434343"/>
<path fill-rule="evenodd" clip-rule="evenodd" d="M158.749 236.69C161.172 236.686 158.885 232.449 156.889 232.185C156.931 233.496 156.847 236.693 158.749 236.69Z" fill="#434343"/>
</g>
<defs>
<clipPath id="clip0_542_2">
<rect width="503" height="526" fill="white"/>
</clipPath>
</defs>
</svg>
