<svg width="392" height="246" viewBox="0 0 392 246" fill="none" xmlns="http://www.w3.org/2000/svg">
<path d="M279.127 124.605C273.22 124.61 267.354 123.614 261.78 121.66L261.365 121.514L261.707 119.916C251.618 100.155 255.102 72.9952 270.606 50.6632C284.71 30.3468 306.19 15.5568 325.139 2.51039C327.472 0.904098 330.231 0.0302876 333.063 0.000773142C335.895 -0.0287413 338.671 0.787381 341.037 2.34471C343.402 3.90203 345.249 6.12972 346.342 8.74275C347.434 11.3558 347.722 14.2353 347.168 17.0128L340.469 50.6373C335.592 75.1227 329.793 98.2936 312.63 112.699C303.169 120.412 291.333 124.618 279.127 124.605Z" fill="#6C63FF"/>
<path d="M266.249 206.719C262.741 181.166 259.133 155.283 261.599 129.456C263.784 106.519 270.782 84.1201 285.029 65.7464C292.591 56.0142 301.793 47.6755 312.221 41.1054C314.939 39.3899 317.442 43.6977 314.735 45.4066C296.692 56.8091 282.736 73.6471 274.879 93.4927C266.202 115.561 264.809 139.619 266.303 163.063C267.207 177.24 269.127 191.324 271.055 205.392C271.207 206.028 271.112 206.698 270.789 207.267C270.466 207.836 269.939 208.26 269.314 208.455C268.677 208.627 267.998 208.54 267.425 208.215C266.851 207.889 266.429 207.35 266.25 206.715L266.249 206.719Z" fill="#3F3D56"/>
<path d="M323.602 183.512C317.157 183.496 310.815 181.888 305.141 178.831C299.467 175.775 294.635 171.364 291.076 165.991L290.833 165.622L291.806 164.797C294.733 148.704 308.911 134.334 327.982 128.152C345.313 122.535 364.511 123.453 381.443 124.266C383.552 124.367 385.582 125.095 387.275 126.356C388.968 127.617 390.246 129.355 390.945 131.347C391.645 133.339 391.734 135.494 391.202 137.537C390.67 139.579 389.54 141.417 387.957 142.814L369.038 159.519C355.244 171.703 341.494 182.704 324.97 183.487C324.514 183.504 324.056 183.512 323.602 183.512Z" fill="#6C63FF"/>
<path d="M256.335 221.407C273.22 191.53 292.804 158.325 327.801 147.712C337.531 144.771 347.734 143.718 357.859 144.608C361.051 144.884 360.254 149.803 357.069 149.529C340.095 148.12 323.155 152.601 309.099 162.22C295.573 171.426 285.041 184.227 276.128 197.799C270.668 206.114 265.777 214.781 260.886 223.437C259.324 226.203 254.754 224.205 256.335 221.407Z" fill="#3F3D56"/>
<path d="M48.8041 182.348C51.3856 182.35 53.949 181.915 56.3851 181.06L56.8001 180.915L56.6209 180.079C60.9661 171.466 59.4417 159.679 52.7146 149.988C46.5979 141.177 37.304 134.778 29.1058 129.134C28.0525 128.408 26.8067 128.014 25.5279 128C24.249 127.987 22.9953 128.356 21.9271 129.059C20.8589 129.762 20.0248 130.768 19.5316 131.948C19.0384 133.128 18.9085 134.428 19.1585 135.683L22.0496 150.195C24.1653 160.815 26.6834 170.867 34.1609 177.143C38.2956 180.514 43.4688 182.353 48.8041 182.348Z" fill="#6C63FF"/>
<path d="M54.3618 217.504C55.8756 206.475 57.4331 195.304 56.3687 184.158C55.4255 174.258 52.4051 164.591 46.2562 156.66C42.9924 152.46 39.0208 148.861 34.5202 146.025C33.3469 145.285 32.2668 147.144 33.4351 147.882C41.2226 152.803 47.246 160.07 50.6369 168.636C54.3819 178.161 54.9832 188.544 54.3382 198.662C53.9483 204.781 53.1197 210.86 52.2876 216.931C52.2219 217.206 52.2629 217.495 52.4023 217.741C52.5418 217.986 52.7693 218.17 53.0388 218.254C53.3137 218.328 53.6067 218.29 53.8543 218.15C54.1018 218.009 54.284 217.777 54.3611 217.503L54.3618 217.504Z" fill="#3F3D56"/>
<path d="M29.6072 207.772C32.4362 207.765 35.2197 207.06 37.7104 205.718C40.2011 204.377 42.3217 202.44 43.884 200.082L44.1267 199.713L43.5925 199.259C42.2698 192.252 36.0945 186.011 27.8054 183.324C20.2752 180.884 11.9656 181.281 4.63058 181.634C3.66402 181.68 2.73326 182.013 1.95731 182.592C1.18135 183.17 0.595558 183.966 0.274872 184.879C-0.0458145 185.792 -0.0868225 186.78 0.157135 187.716C0.401093 188.653 0.918926 189.495 1.64432 190.136L9.80978 197.346C15.803 202.639 21.7805 207.419 29.0037 207.761C29.2049 207.768 29.4066 207.772 29.6072 207.772Z" fill="#6C63FF"/>
<path d="M58.6408 223.844C51.353 210.949 42.9005 196.617 27.7958 192.037C23.5964 190.768 19.193 190.313 14.8228 190.697C13.4452 190.816 13.7893 192.939 15.164 192.821C22.4897 192.213 29.8012 194.147 35.8678 198.298C41.7056 202.272 46.2512 207.796 50.098 213.654C52.4546 217.243 54.5654 220.984 56.6763 224.719C57.3507 225.914 59.3231 225.051 58.6408 223.844Z" fill="#3F3D56"/>
<path d="M68.8371 180.463C60.1886 180.463 53.5968 175.793 48.8214 166.347C44.2443 157.29 48.9914 149.471 55.34 146.038C61.7013 142.598 70.8625 142.908 75.9416 151.711C80.8918 160.29 81.4601 169.182 77.631 178.143L77.8195 179.023L77.3703 179.152C74.6009 179.985 71.7287 180.426 68.8371 180.463Z" fill="#6C63FF"/>
<path d="M77.3752 224.587C81.7977 199.573 82.0769 167.892 57.5327 153.108C56.3603 152.368 55.2802 154.227 56.4485 154.964C80.145 169.297 79.4411 199.903 75.3 224.014C75.2356 224.285 75.279 224.571 75.4211 224.811C75.5631 225.051 75.7928 225.226 76.0617 225.3C76.3306 225.375 76.6177 225.341 76.8625 225.208C77.1074 225.074 77.2909 224.851 77.3744 224.585L77.3752 224.587Z" fill="#3F3D56"/>
<path d="M341.242 206.274C344.331 206.191 347.365 205.427 350.125 204.037C357.083 200.771 357.84 193.913 355.599 188.922C353.382 183.986 347.811 180.041 340.817 183.044C337.687 184.291 334.904 186.277 332.708 188.833C330.512 191.388 328.966 194.437 328.203 197.72L327.634 198.202L327.914 198.579C331.744 203.719 336.148 206.274 341.242 206.274Z" fill="#6C63FF"/>
<path d="M308.141 224.316C316.85 207.644 330.758 188.79 351.96 191.17C353.337 191.289 352.993 193.412 351.618 193.294C331.479 191.209 318.376 209.322 310.106 225.193C309.432 226.386 307.459 225.524 308.141 224.316Z" fill="#3F3D56"/>
<path d="M325.924 227H45.076C44.7907 227 44.5169 226.895 44.3151 226.707C44.1133 226.52 44 226.265 44 226C44 225.735 44.1133 225.48 44.3151 225.293C44.5169 225.105 44.7907 225 45.076 225H325.924C326.209 225 326.483 225.105 326.685 225.293C326.887 225.48 327 225.735 327 226C327 226.265 326.887 226.52 326.685 226.707C326.483 226.895 326.209 227 325.924 227Z" fill="#CACACA"/>
<path d="M199.186 58.9295L197.468 37.5379C197.305 37.0812 197.031 36.6726 196.669 36.3495C196.308 36.0264 195.871 35.7991 195.399 35.6884C194.927 35.5777 194.435 35.5871 193.968 35.7158C193.5 35.8446 193.073 36.0885 192.724 36.4252C178.933 39.8088 173.368 47.0093 171.774 56.0523C165.155 54.6495 158.351 54.3433 151.634 55.1459C156.482 48.2453 156.148 41.2122 151.105 34.0589C150.963 33.5908 150.705 33.1663 150.355 32.8248C150.005 32.4832 149.574 32.2358 149.103 32.1055C148.631 31.9752 148.135 31.9663 147.659 32.0796C147.183 32.1929 146.744 32.4247 146.382 32.7535C137.054 37.4682 130.529 43.3437 129.478 51.4859C117.763 57.7687 108.368 67.6395 102.672 79.6511C96.9763 91.6627 95.2783 105.183 97.8273 118.23C100.376 131.277 107.038 143.165 116.836 152.149C126.634 161.134 139.053 166.743 152.271 168.155C165.49 169.566 178.813 166.706 190.287 159.993C201.762 153.28 210.783 143.067 216.03 130.852C221.276 118.638 222.472 105.064 219.44 92.12C216.409 79.1764 209.311 67.5445 199.186 58.9295Z" fill="#3F3D56"/>
<path d="M206.953 145.739C257.368 139.272 285.728 221.506 204.396 226.088C199.406 231.563 160.293 236.141 127.146 228.582C97.3932 229.774 63.5708 190.856 105.279 137.776L206.953 145.739Z" fill="#3F3D56"/>
<path d="M156.623 188.172V229.774H176.073L191.505 187.413" fill="#3F3D56"/>
<path d="M226.101 215.744C225.994 215.591 225.916 215.43 225.823 215.273C224.995 215.303 224.166 215.334 223.338 215.365L226.101 215.744Z" fill="#3F3D56"/>
<path d="M302.736 191.706C296.527 181.783 281.335 179.025 272.035 186.134C267.838 189.342 265.009 193.98 261.424 197.859C255.392 204.343 247.348 208.601 238.594 209.941C232.5 210.855 226.055 210.359 220.428 212.868C214.97 215.301 210.853 222.247 213.824 227.273C234.771 226.501 255.718 225.729 276.665 224.957C282.691 224.735 288.932 224.46 294.321 221.753C304.781 216.498 308.945 201.63 302.736 191.706Z" fill="#3F3D56"/>
<path d="M154.092 162.961C145.488 163.04 136.961 161.338 129.046 157.963C112.521 150.79 104.947 138.685 104.633 138.173C104.529 138.002 104.498 137.796 104.545 137.602C104.592 137.408 104.714 137.24 104.885 137.135C105.055 137.03 105.26 136.997 105.455 137.043C105.65 137.088 105.819 137.209 105.925 137.379C111.912 145.881 120.156 152.54 129.727 156.605C144.608 163.039 170.02 166.262 206.572 145.083C206.658 145.033 206.753 145 206.852 144.987C206.951 144.973 207.051 144.98 207.148 145.005C207.244 145.031 207.334 145.075 207.414 145.136C207.493 145.196 207.559 145.272 207.609 145.358C207.659 145.444 207.692 145.54 207.705 145.638C207.718 145.737 207.712 145.838 207.686 145.934C207.66 146.03 207.616 146.121 207.555 146.2C207.494 146.279 207.419 146.345 207.333 146.395C185.876 158.828 168.16 162.961 154.092 162.961Z" fill="#868686"/>
<path d="M157.381 124.474C155.974 124.472 154.625 123.913 153.63 122.918C152.634 121.922 152.075 120.573 152.073 119.166C152.074 118.965 152.154 118.774 152.297 118.632C152.439 118.491 152.631 118.411 152.831 118.411C153.032 118.411 153.224 118.491 153.366 118.632C153.508 118.774 153.589 118.965 153.59 119.166C153.591 120.17 153.991 121.133 154.702 121.843C155.413 122.553 156.377 122.951 157.381 122.951C158.386 122.951 159.349 122.553 160.06 121.843C160.771 121.133 161.171 120.17 161.173 119.166C161.174 118.965 161.254 118.774 161.396 118.632C161.538 118.491 161.731 118.411 161.931 118.411C162.131 118.411 162.324 118.491 162.466 118.632C162.608 118.774 162.688 118.965 162.689 119.166C162.688 120.573 162.128 121.922 161.133 122.918C160.138 123.913 158.788 124.472 157.381 124.474Z" fill="white"/>
<path d="M157.76 112.02C161.111 112.02 163.827 110.976 163.827 109.687C163.827 108.398 161.111 107.354 157.76 107.354C154.41 107.354 151.694 108.398 151.694 109.687C151.694 110.976 154.41 112.02 157.76 112.02Z" fill="white"/>
<path d="M116.969 109.858C118.705 107.78 120.877 106.108 123.329 104.961C125.782 103.814 128.457 103.219 131.165 103.219C133.873 103.219 136.548 103.814 139.001 104.961C141.454 106.108 143.625 107.78 145.361 109.858C148.302 107.051 150.344 103.434 151.23 99.4654C152.115 95.497 151.804 91.3551 150.336 87.5635C148.867 83.7719 146.308 80.5009 142.98 78.1641C139.653 75.8273 135.707 74.5297 131.642 74.4353C127.577 74.341 123.576 75.4542 120.143 77.6341C116.711 79.814 114.002 82.9628 112.359 86.6822C110.717 90.4016 110.214 94.5246 110.914 98.5298C111.615 102.535 113.487 106.243 116.295 109.184C116.515 109.414 116.739 109.639 116.969 109.858Z" fill="white"/>
<path d="M172.477 109.858C174.212 107.78 176.384 106.108 178.837 104.961C181.289 103.814 183.964 103.219 186.672 103.219C189.38 103.219 192.055 103.814 194.508 104.961C196.961 106.108 199.132 107.78 200.868 109.858C203.809 107.051 205.851 103.434 206.737 99.4655C207.622 95.4971 207.311 91.3552 205.843 87.5636C204.374 83.7719 201.815 80.5009 198.487 78.1641C195.16 75.8273 191.214 74.5297 187.149 74.4353C183.084 74.341 179.083 75.4542 175.65 77.6341C172.218 79.814 169.509 82.9627 167.867 86.6821C166.224 90.4015 165.721 94.5245 166.421 98.5297C167.122 102.535 168.994 106.243 171.802 109.184C172.022 109.414 172.246 109.639 172.477 109.858Z" fill="white"/>
<path d="M122.152 104.059C126.058 104.059 129.224 100.893 129.224 96.9876C129.224 93.0819 126.058 89.9158 122.152 89.9158C118.246 89.9158 115.08 93.0819 115.08 96.9876C115.08 100.893 118.246 104.059 122.152 104.059Z" fill="#3F3D56"/>
<path d="M177.657 104.059C181.563 104.059 184.729 100.893 184.729 96.9876C184.729 93.0819 181.563 89.9158 177.657 89.9158C173.752 89.9158 170.585 93.0819 170.585 96.9876C170.585 100.893 173.752 104.059 177.657 104.059Z" fill="#3F3D56"/>
<path d="M187.334 124.823C190.756 124.823 193.531 122.049 193.531 118.627C193.531 115.204 190.756 112.43 187.334 112.43C183.912 112.43 181.137 115.204 181.137 118.627C181.137 122.049 183.912 124.823 187.334 124.823Z" fill="#FF6584"/>
<path d="M131.334 124.823C134.756 124.823 137.531 122.049 137.531 118.627C137.531 115.204 134.756 112.43 131.334 112.43C127.912 112.43 125.137 115.204 125.137 118.627C125.137 122.049 127.912 124.823 131.334 124.823Z" fill="#FF6584"/>
<path d="M65.1109 225.524C67.5986 223.973 65.8436 216.666 61.1909 209.202C56.5382 201.739 50.7496 196.946 48.2619 198.497C45.7741 200.048 47.5291 207.355 52.1818 214.819C56.8345 222.282 62.6231 227.075 65.1109 225.524Z" fill="#3F3D56"/>
<path d="M90.474 174.389L56.686 209.977L65.496 225.148L97.393 206.088" fill="#3F3D56"/>
<path d="M149.561 240.215C149.991 237.315 143.286 233.92 134.586 232.632C125.886 231.345 118.485 232.651 118.056 235.551C117.627 238.451 124.331 241.846 133.031 243.134C141.731 244.422 149.132 243.115 149.561 240.215Z" fill="#3F3D56"/>
<path d="M127.024 187.777L132.261 236.569L149.496 240.148L155.659 203.033" fill="#3F3D56"/>
<path d="M203.068 239.213C211.812 238.267 218.645 235.137 218.33 232.223C218.014 229.308 210.67 227.712 201.927 228.658C193.183 229.604 186.35 232.734 186.665 235.648C186.981 238.563 194.325 240.159 203.068 239.213Z" fill="#3F3D56"/>
<path d="M183.303 187.154L200.666 233.051L218.247 232.172L214.859 194.701" fill="#3F3D56"/>
</svg>
