<svg width="238" height="225" viewBox="0 0 238 225" fill="none" xmlns="http://www.w3.org/2000/svg">
<g clip-path="url(#clip0_703_129)">
<path d="M129.639 213.496C189.485 213.496 238 208.117 238 201.483C238 194.848 189.485 189.47 129.639 189.47C69.7922 189.47 21.2772 194.848 21.2772 201.483C21.2772 208.117 69.7922 213.496 129.639 213.496Z" fill="#3F3D56"/>
<path d="M183.379 188.19L185.248 193.903C185.248 193.903 194.249 203.13 190.994 205.63C187.738 208.131 180.435 194.948 180.435 194.948L179.089 188.499L183.379 188.19Z" fill="#FFB8B8"/>
<path d="M166.112 143.971L168.836 143.07C168.836 143.07 173.074 144.272 173.679 148.476C174.285 152.681 178.825 174.003 178.825 174.003C178.825 174.003 180.641 174.904 179.43 176.406C178.22 177.908 185.484 191.422 185.484 191.422L179.733 194.125C179.733 194.125 168.231 182.112 168.231 180.911C168.231 179.71 168.534 178.508 168.534 177.307C168.534 176.106 168.231 176.106 168.534 175.205C168.736 174.42 168.837 173.612 168.836 172.802L166.718 167.997L166.112 143.971Z" fill="white"/>
<path d="M27.3681 164.572C42.4832 164.572 54.7363 139.766 54.7363 109.166C54.7363 78.5663 42.4832 53.7603 27.3681 53.7603C12.2531 53.7603 0 78.5663 0 109.166C0 139.766 12.2531 164.572 27.3681 164.572Z" fill="white"/>
<path d="M27.1169 109.741C28.4821 85.6229 31.2327 69.3321 31.2603 69.1704L30.6635 69.0701C30.6359 69.232 27.8804 85.5489 26.513 109.698C25.2511 131.986 24.9467 165.698 30.6634 199.73L31.2605 199.631C25.5535 165.657 25.8572 131.996 27.1169 109.741Z" fill="#3F3D56"/>
<path d="M51.829 97.93L27.0839 111.071L27.3695 111.6L52.1147 98.4596L51.829 97.93Z" fill="#3F3D56"/>
<path d="M1.24674 104.516L0.961197 105.046L25.7099 118.18L25.9954 117.65L1.24674 104.516Z" fill="#3F3D56"/>
<path d="M92.1874 151.637C112.871 151.637 129.639 117.692 129.639 75.8187C129.639 33.9452 112.871 0 92.1874 0C71.5037 0 54.7363 33.9452 54.7363 75.8187C54.7363 117.692 71.5037 151.637 92.1874 151.637Z" fill="#E6E6E6"/>
<path d="M91.7326 76.5953C93.601 43.5866 97.3658 21.2905 97.4036 21.0691L96.8068 20.9688C96.769 21.1903 92.9993 43.5125 91.1287 76.5523C89.402 107.046 88.9855 153.17 96.8067 199.73L97.4038 199.631C89.5923 153.129 90.0082 107.056 91.7326 76.5953Z" fill="#3F3D56"/>
<path d="M125.713 60.5401L91.851 78.5225L92.1367 79.0521L125.998 61.0697L125.713 60.5401Z" fill="#3F3D56"/>
<path d="M56.3898 69.5528L56.1042 70.0825L89.9709 88.0558L90.2565 87.5261L56.3898 69.5528Z" fill="#3F3D56"/>
<path d="M60.9886 181.182C68.7165 181.182 74.9813 168.499 74.9813 152.854C74.9813 137.209 68.7165 124.526 60.9886 124.526C53.2606 124.526 46.9958 137.209 46.9958 152.854C46.9958 168.499 53.2606 181.182 60.9886 181.182Z" fill="#E6E6E6"/>
<path d="M60.9762 154.075L61.059 154.228L73.7106 147.509L73.4251 146.98L61.0026 153.577C61.69 141.023 63.096 132.596 63.1244 132.43L62.5276 132.329C62.4966 132.511 60.8261 142.518 60.2332 156.999L47.7039 150.345L47.4184 150.875L60.07 157.594L60.221 157.314C59.7466 169.266 60.0125 184.21 62.5274 199.182L63.1245 199.083C60.3826 182.76 60.3222 166.467 60.9762 154.075Z" fill="#3F3D56"/>
<path d="M169.816 115.463C164.951 107.236 155.325 106.852 155.325 106.852C155.325 106.852 145.945 105.652 139.928 118.182C134.319 129.862 126.579 141.138 138.682 143.872L140.868 137.063L142.222 144.379C143.945 144.503 145.673 144.533 147.4 144.468C160.361 144.049 172.704 144.59 172.307 139.936C171.778 133.748 174.498 123.379 169.816 115.463Z" fill="#2F2E41"/>
<path d="M135.903 181.364C135.767 182.224 135.57 183.073 135.313 183.906C135.023 184.72 134.576 185.473 134.312 186.296C133.468 188.919 134.638 191.844 136.505 193.868C138.12 195.614 140.211 196.857 142.525 197.445C144.21 197.87 145.962 197.931 147.698 197.989C152.506 198.153 157.438 198.299 161.994 196.752C163.434 196.251 164.824 195.619 166.147 194.864C166.566 194.664 166.934 194.374 167.225 194.015C167.572 193.52 167.617 192.878 167.614 192.273C167.603 190.233 167.19 188.203 167.288 186.166C167.343 185.037 167.554 183.91 167.45 182.784C167.31 181.511 166.777 180.312 165.925 179.35C165.072 178.388 163.941 177.711 162.686 177.411C161.394 177.133 160.053 177.285 158.737 177.411C155.322 177.74 151.892 177.893 148.461 177.871C144.955 177.849 141.471 177.313 137.983 177.257C136.951 177.241 136.972 177.559 136.644 178.558C136.341 179.478 136.094 180.415 135.903 181.364Z" fill="#2F2E41"/>
<path d="M122.194 179.706C121.251 179.469 120.28 179.366 119.308 179.399C118.287 179.463 117.291 179.74 116.384 180.211C115.478 180.683 114.682 181.339 114.048 182.136C113.42 182.945 112.97 183.875 112.724 184.867C112.479 185.858 112.444 186.89 112.622 187.895C112.857 188.985 113.242 190.037 113.766 191.022C114.531 192.576 115.449 194.127 116.865 195.123C117.718 195.67 118.637 196.108 119.601 196.426L127.062 199.239C128.16 199.653 129.258 200.067 130.366 200.451C135.932 202.376 141.739 203.532 147.623 203.884C149.415 203.991 151.233 204.02 152.981 203.612C153.408 203.556 153.799 203.345 154.078 203.019C154.221 202.771 154.305 202.494 154.324 202.208L154.783 198.992C154.886 198.544 154.872 198.077 154.744 197.636C154.533 197.095 154.006 196.755 153.504 196.466C148.598 193.647 142.871 192.091 138.742 188.221C137.77 187.31 136.957 185.866 135.776 185.247C134.436 184.546 132.859 184.145 131.475 183.499C128.449 182.085 125.474 180.46 122.194 179.706Z" fill="#2F2E41"/>
<path opacity="0.1" d="M129.643 184.043C132.28 184.87 143.415 190.599 145.323 192.6C145.067 192.692 136.388 187.824 136.127 187.746C133.76 187.035 131.379 186.319 129.131 185.278C128.679 185.069 126.193 184.085 126.306 183.514C126.433 182.87 129.175 183.896 129.643 184.043Z" fill="black"/>
<path d="M162.544 205.552C162.694 205.563 162.843 205.519 162.962 205.429C163.015 205.361 163.054 205.284 163.076 205.201C163.098 205.119 163.104 205.032 163.093 204.948L163.081 200.565C161.822 199.965 160.413 199.772 159.031 199.588L152.58 198.725C152.728 198.744 151.571 201.505 151.749 201.874C152.061 202.523 154.45 203.099 155.125 203.406C157.469 204.472 159.904 205.644 162.544 205.552Z" fill="#FFB8B8"/>
<path d="M142.306 200.55C141.088 200.744 139.728 200.916 138.94 201.865C137.939 203.068 138.365 204.862 138.842 206.352C138.913 206.653 139.055 206.933 139.257 207.169C139.583 207.49 140.082 207.538 140.538 207.566C141.649 207.637 142.831 207.692 143.802 207.147C144.241 206.856 144.665 206.541 145.069 206.204C145.784 205.728 146.571 205.368 147.4 205.137C148.922 204.658 150.49 204.335 152.078 204.172C152.704 204.144 153.324 204.035 153.921 203.847C154.221 203.75 154.494 203.586 154.719 203.367C154.944 203.148 155.115 202.881 155.219 202.586C155.444 201.79 154.982 200.978 154.538 200.279C153.985 199.409 153.4 198.493 152.576 197.853C151.374 196.919 150.78 197.636 149.569 198.234C147.279 199.365 144.831 200.146 142.306 200.55Z" fill="#FFB8B8"/>
<path d="M139.123 201.648L131.389 199.361C130.462 199.037 129.493 198.849 128.512 198.802C127.531 198.803 126.505 199.125 125.869 199.872C125.269 200.577 125.097 201.539 124.948 202.452L124.628 204.406C124.415 205.391 124.354 206.402 124.449 207.406C124.595 208.401 125.103 209.395 125.985 209.877C127.055 210.461 128.367 210.176 129.561 209.931C131.973 209.438 134.427 209.175 136.89 209.145C137.816 209.134 138.786 209.145 139.604 208.712C140.577 208.196 141.158 207.105 141.258 206.009C141.411 204.34 140.855 202.16 139.123 201.648Z" fill="#2F2E41"/>
<path d="M165.584 199.655C166.587 199.479 167.471 198.909 168.432 198.572C169.784 198.098 171.25 198.098 172.682 198.103C173.208 198.105 173.768 198.117 174.206 198.409C174.837 198.829 174.999 199.671 175.106 200.422L175.753 204.953C175.875 205.805 175.996 206.681 175.806 207.52C175.616 208.36 175.044 209.17 174.212 209.386C173.2 209.649 172.209 209.003 171.254 208.578C168.868 207.517 166.094 207.788 163.605 206.995C163.144 206.847 162.649 206.622 162.461 206.175C162.375 205.924 162.345 205.657 162.372 205.392C162.414 203.936 162.107 201.947 162.545 200.555C162.939 199.303 164.465 199.655 165.584 199.655Z" fill="#2F2E41"/>
<path d="M181.95 177.882C183.494 177.494 185.097 177.385 186.68 177.559C187.945 177.698 189.248 178.05 190.172 178.926C191.295 179.993 191.657 181.642 191.687 183.191C191.737 186.274 190.715 189.279 188.793 191.701C188.325 192.311 187.767 192.848 187.138 193.295C186.462 193.718 185.74 194.066 184.986 194.333L168.277 200.928C163.881 202.664 159.469 204.404 154.884 205.548C154.759 205.608 154.622 205.643 154.483 205.65C154.344 205.657 154.204 205.636 154.073 205.588C153.942 205.541 153.822 205.468 153.72 205.373C153.618 205.279 153.537 205.165 153.48 205.038C152.015 202.944 150.787 200.695 149.818 198.334C149.774 198.258 149.747 198.175 149.739 198.088C149.731 198.001 149.742 197.914 149.77 197.832C149.832 197.741 149.917 197.668 150.017 197.622L161.836 190.826C162.703 190.373 163.511 189.816 164.241 189.167C164.753 188.671 165.171 188.088 165.476 187.446C165.721 186.934 165.744 185.726 166.057 185.347C166.363 184.977 167.411 184.947 167.896 184.801C168.578 184.592 169.247 184.339 169.897 184.044C172.541 182.86 174.895 181.141 177.429 179.755C178.849 178.942 180.369 178.313 181.95 177.882Z" fill="#2F2E41"/>
<path opacity="0.1" d="M175.25 182.957C173.219 184.483 170.59 185.886 168.578 187.453C167.891 187.987 156.441 194.429 156.28 195.285C158.157 195.602 170.117 187.228 171.828 186.393C173.539 185.557 175.056 184.379 176.559 183.21C176.942 182.912 178.565 182.016 177.466 181.683C176.846 181.495 175.707 182.652 175.25 182.957Z" fill="black"/>
<path d="M154.913 136.163C161.265 136.163 166.415 131.053 166.415 124.751C166.415 118.448 161.265 113.338 154.913 113.338C148.56 113.338 143.411 118.448 143.411 124.751C143.411 131.053 148.56 136.163 154.913 136.163Z" fill="#FFB8B8"/>
<path d="M159.756 134.361C159.756 134.361 157.94 138.866 161.269 140.668C164.599 142.47 150.978 156.885 150.978 156.885L144.924 139.466C144.924 139.466 150.07 137.665 149.162 132.859L159.756 134.361Z" fill="#FFB8B8"/>
<path d="M152.189 146.674L159.519 138.645L169.442 143.671L167.928 179.109L165.507 181.812C165.507 181.812 155.216 190.821 139.476 183.313C139.476 183.313 134.028 178.808 134.33 171.901C134.633 164.994 133.725 164.093 133.725 164.093L133.422 139.767L148.366 136.857L152.189 146.674Z" fill="white"/>
<path d="M118.576 184.887L116.707 190.6C116.707 190.6 107.707 199.826 110.962 202.327C114.217 204.827 121.521 191.645 121.521 191.645L122.867 185.195L118.576 184.887Z" fill="#FFB8B8"/>
<path d="M135.844 140.668L133.119 139.767C133.119 139.767 128.882 140.968 128.277 145.172C127.671 149.377 123.131 170.7 123.131 170.7C123.131 170.7 121.315 171.601 122.525 173.102C123.736 174.604 116.472 188.118 116.472 188.118L122.223 190.821C122.223 190.821 133.725 178.808 133.725 177.607C133.725 176.406 133.422 175.205 133.422 174.003C133.422 172.802 133.725 172.802 133.422 171.901C133.22 171.116 133.118 170.309 133.119 169.498L135.238 164.693L135.844 140.668Z" fill="white"/>
<path d="M167.665 114.67L158.155 109.685L145.022 111.724L142.305 123.734L149.069 123.474L150.958 119.061V123.401L154.079 123.28L155.891 116.256L157.023 123.734L168.118 123.507L167.665 114.67Z" fill="#2F2E41"/>
<path d="M100.251 191.93V209.252H46.9237C46.924 204.658 48.7634 200.252 52.0376 197.004C55.3117 193.755 59.7523 191.93 64.3826 191.93C69.383 190.383 75.1643 189.89 81.4359 190.053C87.3534 190.203 93.7068 190.939 100.251 191.93Z" fill="#FF6584"/>
<path d="M92.633 205.473H117.71C118.131 205.473 118.534 205.639 118.832 205.934C119.13 206.23 119.297 206.63 119.297 207.048C119.297 207.466 119.13 207.866 118.832 208.161C118.534 208.457 118.131 208.623 117.71 208.623H92.633V205.473Z" fill="#3F3D56"/>
<path d="M96.9761 177.105L103.698 169.021C103.853 168.7 104.102 168.434 104.413 168.258C104.724 168.081 105.082 168.003 105.439 168.033C105.796 168.064 106.136 168.201 106.412 168.428C106.688 168.654 106.889 168.959 106.986 169.301L109.637 178.586L96.9761 177.105Z" fill="#3F3D56"/>
<path d="M88.8239 181.222L91.3633 171.05C91.3633 170.694 91.4724 170.347 91.6761 170.055C91.8798 169.762 92.1685 169.538 92.5037 169.412C92.8388 169.286 93.2047 169.265 93.5525 169.351C93.9003 169.436 94.2136 169.625 94.4507 169.891L100.886 177.128L88.8239 181.222Z" fill="#FF6584"/>
<path d="M46.9235 209.253H52.0023V219.961C52.0023 220.623 51.871 221.278 51.6157 221.889C51.3605 222.501 50.9864 223.056 50.5148 223.524C50.0432 223.992 49.4833 224.363 48.8671 224.616C48.2509 224.87 47.5905 225 46.9235 225V209.253Z" fill="#FF6584"/>
<path d="M91.6807 206.103H116.757C117.178 206.103 117.582 206.269 117.88 206.564C118.177 206.86 118.345 207.26 118.345 207.678C118.345 208.095 118.177 208.496 117.88 208.791C117.582 209.087 117.178 209.252 116.757 209.252H91.6807V206.103Z" fill="#FF6584"/>
<path opacity="0.2" d="M100.251 191.929V209.156C97.6746 209.428 95.0697 209.116 92.6321 208.246C90.1944 207.375 87.9873 205.968 86.1766 204.129C84.3658 202.291 82.9986 200.069 82.1775 197.631C81.3564 195.193 81.1029 192.602 81.4359 190.052C87.3534 190.203 93.7068 190.938 100.251 191.929Z" fill="black"/>
<path d="M100.251 209.253C109.718 209.253 117.392 201.638 117.392 192.245C117.392 182.853 109.718 175.238 100.251 175.238C90.7845 175.238 83.1102 182.853 83.1102 192.245C83.1102 201.638 90.7845 209.253 100.251 209.253Z" fill="#FF6584"/>
<path d="M116.757 197.914C117.809 197.914 118.662 195.94 118.662 193.505C118.662 191.07 117.809 189.096 116.757 189.096C115.706 189.096 114.853 191.07 114.853 193.505C114.853 195.94 115.706 197.914 116.757 197.914Z" fill="#3F3D56"/>
<path d="M112.155 190.041C112.418 190.041 112.631 189.547 112.631 188.939C112.631 188.33 112.418 187.836 112.155 187.836C111.892 187.836 111.679 188.33 111.679 188.939C111.679 189.547 111.892 190.041 112.155 190.041Z" fill="#3F3D56"/>
<path d="M115.646 187.836C115.909 187.836 116.123 187.343 116.123 186.734C116.123 186.125 115.909 185.632 115.646 185.632C115.383 185.632 115.17 186.125 115.17 186.734C115.17 187.343 115.383 187.836 115.646 187.836Z" fill="#3F3D56"/>
<path d="M98.8131 175.049C98.8131 175.049 97.8604 173.405 97.8604 172.402L98.8131 175.049Z" fill="#3F3D56"/>
<path d="M99.2322 173.986C99.2322 173.986 99.7513 172.16 100.474 171.459L99.2322 173.986Z" fill="#3F3D56"/>
</g>
<defs>
<clipPath id="clip0_703_129">
<rect width="238" height="225" fill="white"/>
</clipPath>
</defs>
</svg>
